<svg width="138" height="28" viewBox="0 0 138 28" fill="none" xmlns="http://www.w3.org/2000/svg">
<path d="M23.5106 11.4545H30.4345L21.5323 28V16.5455H14.6084L23.5106 0V11.4545Z" fill="#E19E47"/>
<path d="M54.6587 22.7654H55.9714C56.6775 22.7654 57.0732 23.1265 57.0732 23.7778C57.0732 24.2709 56.848 24.5022 56.6025 24.5915C56.8845 24.7051 57.1787 24.9526 57.1787 25.539C57.1787 26.3201 56.7039 26.7097 55.941 26.7097H54.6587V22.7654ZM55.7828 24.3054C56.1175 24.3054 56.1967 24.1694 56.1967 23.8651C56.1967 23.5546 56.0709 23.4289 55.7929 23.4289H55.5413V24.3054H55.7828ZM55.5413 26.0564H55.8274C56.1074 26.0564 56.2535 25.9225 56.2535 25.5106C56.2535 25.1129 56.1358 24.9425 55.7746 24.9425H55.5413V26.0564Z" fill="#E19E47"/>
<path d="M58.5768 25.8657L58.4428 26.7097H57.5359L58.315 22.7654H59.5892L60.3765 26.7097H59.435L59.297 25.8657H58.5768ZM59.1753 25.1048C59.086 24.5286 58.9988 23.8874 58.9501 23.5242H58.9196C58.8811 23.9016 58.7857 24.5286 58.6924 25.1048H59.1753Z" fill="#E19E47"/>
<path d="M61.4031 23.508H60.626V22.7654H63.0831V23.508H62.31V26.7117H61.4051V23.508H61.4031Z" fill="#E19E47"/>
<path d="M64.1299 23.508H63.3528V22.7654H65.8099V23.508H65.0369V26.7117H64.1319V23.508H64.1299Z" fill="#E19E47"/>
<path d="M68.4113 25.0378H67.2163V25.9773H68.5696L68.4641 26.7097H66.3296V22.7654H68.4681V23.508H67.2183V24.3013H68.4134V25.0378H68.4113Z" fill="#E19E47"/>
<path d="M70.0264 25.0966V26.7117H69.1316V22.7673H70.4646C71.2255 22.7673 71.613 23.1447 71.613 23.8589C71.613 24.4047 71.3452 24.6604 71.1058 24.7557C71.4142 24.8937 71.5603 25.1473 71.5603 25.7154V25.8534C71.5603 26.2917 71.5765 26.5412 71.6029 26.7137H70.7243C70.6777 26.5615 70.6635 26.2105 70.6635 25.825V25.6891C70.6635 25.2224 70.5701 25.0986 70.2232 25.0986H70.0264V25.0966ZM70.0284 24.4169H70.2394C70.5783 24.4169 70.7081 24.2952 70.7081 23.9097C70.7081 23.585 70.5945 23.443 70.2962 23.443H70.0284V24.4169Z" fill="#E19E47"/>
<path d="M73.1572 22.7654V26.7097H72.2502V22.7654H73.1572Z" fill="#E19E47"/>
<path d="M76.022 25.0378H74.8269V25.9773H76.1782L76.0727 26.7097H73.9382V22.7654H76.0768V23.508H74.8269V24.3013H76.022V25.0378Z" fill="#E19E47"/>
<path d="M77.4586 25.5694C77.4809 25.894 77.5742 26.1172 77.8441 26.1172C78.1078 26.1172 78.191 25.9407 78.191 25.7155C78.191 25.4416 78.0531 25.2813 77.5905 25.0439C76.9047 24.6908 76.647 24.3926 76.647 23.8123C76.647 23.1367 77.0589 22.6943 77.84 22.6943C78.7591 22.6943 79.0229 23.2685 79.029 23.8752H78.1565C78.1423 23.6013 78.0916 23.3639 77.8339 23.3639C77.6331 23.3639 77.5418 23.4937 77.5418 23.7149C77.5418 23.9401 77.629 24.0578 78.0592 24.2708C78.7896 24.6401 79.1 24.9505 79.1 25.614C79.1 26.2653 78.7186 26.7848 77.8339 26.7848C76.8742 26.7848 76.5821 26.239 76.5618 25.5674H77.4586V25.5694Z" fill="#E19E47"/>
<path d="M0 5.43774H14.2841V8.68412H4.86957V9.73918H12.8881V12.174H4.86957V13.2291H14.2841V16.4754H0V5.43774Z" fill="#E19E47"/>
<path d="M30.7876 5.43774H45.0717V8.68412H35.6572V9.73918H43.6757V12.174H35.6572V13.2291H45.0717V16.4754H30.7876V5.43774Z" fill="#E19E47"/>
<path d="M63.2353 10.2099V10.291H57.96L57.9113 10.0638C57.7165 9.15482 56.8562 8.52177 54.6974 8.52177H54.0806C51.8081 8.52177 50.5258 9.18727 50.5258 10.8916V11.0215C50.5258 12.7258 51.8081 13.3913 54.0806 13.3913H54.6974C56.8562 13.3913 57.7165 12.7583 57.9113 11.8493L57.96 11.6221H63.2353V11.7032C63.2353 15.0308 60.2 16.6377 54.6487 16.6377H54.1292C48.4156 16.6377 45.4939 15.047 45.4939 11.0864V10.8267C45.4939 6.86612 48.4156 5.27539 54.1292 5.27539H54.6487C60.2 5.27539 63.2353 6.88235 63.2353 10.2099Z" fill="#E19E47"/>
<path d="M79.9706 5.43774V9.00875H74.1921V16.4754H69.3225V9.00875H63.5439V5.43774H79.9706Z" fill="#E19E47"/>
<path d="M86.1811 16.4754H81.3115V5.43774H91.6999C95.9202 5.43774 97.2837 6.6389 97.2837 8.86267V9.05746C97.2837 10.4696 96.5857 11.4435 95.1736 11.8493C96.5208 12.1415 96.8941 12.8882 97.024 14.0569L97.2999 16.4754H92.1544L91.9759 14.7224C91.8947 13.8946 91.5538 13.4725 90.4176 13.4725H86.1811V16.4754ZM92.333 9.51194C92.333 8.91136 91.8622 8.68412 90.6449 8.68412H86.1811V10.3885H90.6449C91.8622 10.3885 92.333 10.1612 92.333 9.56063V9.51194Z" fill="#E19E47"/>
<path d="M110.024 14.6412H103.937L102.963 16.4754H97.9958L104.31 5.43774H109.91L116.224 16.4754H110.998L110.024 14.6412ZM105.495 11.7195H108.482L106.988 8.89513L105.495 11.7195Z" fill="#E19E47"/>
<path d="M125.383 9.1873L123.143 16.4754H117.332L113.647 5.43774H118.566L120.611 12.6609L122.835 5.43774H128.272L130.496 12.6609L132.541 5.43774H137.103L133.418 16.4754H127.607L125.383 9.1873Z" fill="#E19E47"/>
</svg>
