<svg width="498" height="103" viewBox="0 0 498 103" fill="none" xmlns="http://www.w3.org/2000/svg">
<path d="M85.399 42.254H110.549L78.2133 102.352V60.7458H53.0635L85.399 0.647461V42.254Z" fill="#E19E47"/>
<path d="M0 20.3989H51.8842V32.1908H17.6878V36.0231H46.8137V44.867H17.6878V48.6994H51.8842V60.4913H0V20.3989Z" fill="#E19E47"/>
<path d="M111.831 20.3989H163.715V32.1908H129.519V36.0231H158.645V44.867H129.519V48.6994H163.715V60.4913H111.831V20.3989Z" fill="#E19E47"/>
<path d="M229.691 37.733V38.0278H210.529L210.352 37.2024C209.645 33.9006 206.52 31.6012 198.678 31.6012H196.438C188.183 31.6012 183.526 34.0185 183.526 40.2092V40.6809C183.526 46.8717 188.183 49.2889 196.438 49.2889H198.678C206.52 49.2889 209.645 46.9895 210.352 43.6878L210.529 42.8624H229.691V43.1572C229.691 55.2439 218.665 61.0808 198.501 61.0808H196.615C175.861 61.0808 165.248 55.3028 165.248 40.9167V39.9734C165.248 25.5874 175.861 19.8093 196.615 19.8093H198.501C218.665 19.8093 229.691 25.6463 229.691 37.733Z" fill="#E19E47"/>
<path d="M290.478 20.3989V33.37H269.489V60.4913H251.801V33.37H230.811V20.3989H290.478V20.3989Z" fill="#E19E47"/>
<path d="M313.037 60.4913H295.349V20.3989H333.083C348.413 20.3989 353.365 24.7619 353.365 32.8393V33.5469C353.365 38.6763 350.83 42.2139 345.701 43.6878C350.594 44.7491 351.95 47.4612 352.422 51.7063L353.424 60.4913H334.734L334.086 54.1237C333.791 51.1167 332.553 49.5838 328.426 49.5838H313.037V60.4913V60.4913ZM335.383 35.1977C335.383 33.0162 333.673 32.1908 329.251 32.1908H313.037V38.3815H329.251C333.673 38.3815 335.383 37.556 335.383 35.3746V35.1977Z" fill="#E19E47"/>
<path d="M399.641 53.8288H377.531L373.994 60.4913H355.952L378.887 20.3989H399.228L422.164 60.4913H403.179L399.641 53.8288ZM383.191 43.2162H394.04L388.616 32.9572L383.191 43.2162Z" fill="#E19E47"/>
<path d="M455.431 34.0185L447.295 60.4913H426.188L412.804 20.3989H430.668L438.097 46.6358L446.175 20.3989H465.926L474.004 46.6358L481.432 20.3989H498L484.616 60.4913H463.509L455.431 34.0185Z" fill="#E19E47"/>
</svg>
