<svg width="460" height="332" viewBox="0 0 460 332" fill="none" xmlns="http://www.w3.org/2000/svg">
<path fill-rule="evenodd" clip-rule="evenodd" d="M137.311 19.6284L137.959 39.2568L148.615 39.9409L159.27 40.6251V32.5786C159.27 27.4977 160.511 24.0588 162.635 23.2445C164.993 22.3382 166 18.6638 166 10.9762V0H151.331H136.663L137.311 19.6284ZM170.486 11.2521V22.5065L230.28 21.9075C288.095 21.331 290.098 21.1628 290.816 16.8243C291.225 14.3568 290.987 9.5607 290.289 6.16892L289.022 0H229.755H170.486V11.2521ZM296.108 11.2162C296.108 17.3851 297.118 22.4324 298.351 22.4324C299.585 22.4324 300.595 26.4703 300.595 31.4054V40.3784H311.811H323.027V20.1892V0H309.568H296.108V11.2162ZM28.46 33.2112C22.6209 39.3061 22.4324 40.3223 22.4324 65.7382V91.973H38.9091C52.5368 91.973 56.0878 91.1968 59.4459 87.4865C62.674 83.9197 66.3551 83 77.3919 83C88.4286 83 92.1098 83.9197 95.3378 87.4865C98.696 91.1968 102.247 91.973 115.875 91.973H132.351V65.4735C132.351 39.3689 132.257 38.8844 126.059 32.9465L119.769 26.9189H77.1272H34.4876L28.46 33.2112ZM333.481 33.6307C328.112 40.0127 327.852 41.5965 328.234 65.5969L328.635 90.8513L344.47 91.5019C358.051 92.0605 360.893 91.5019 364.446 87.5762C370.389 81.0102 394.503 80.9497 400.419 87.4865C403.777 91.1968 407.328 91.973 420.956 91.973H437.432V65.4735C437.432 39.3689 437.338 38.8844 431.14 32.9465L424.85 26.9189H381.988H339.129L333.481 33.6307ZM94.2162 32.527C94.2162 35.2189 90.8513 35.8919 77.3919 35.8919C63.9324 35.8919 60.5676 35.2189 60.5676 32.527C60.5676 29.8351 63.9324 29.1622 77.3919 29.1622C90.8513 29.1622 94.2162 29.8351 94.2162 32.527ZM400.419 32.527C400.419 33.7743 392.691 35.0619 383.034 35.4253C368.39 35.9771 365.649 35.5195 365.649 32.527C365.649 29.5345 368.39 29.0769 383.034 29.6288C392.691 29.9922 400.419 31.2798 400.419 32.527ZM90.8513 42.6216C84.1665 50.0064 62.8108 47.9561 62.8108 39.9297C62.8108 38.9427 70.034 38.1351 78.8612 38.1351C94.7703 38.1351 94.8757 38.1755 90.8513 42.6216ZM395.932 42.6216C389.248 50.0064 367.892 47.9561 367.892 39.9297C367.892 38.9427 375.115 38.1351 383.942 38.1351C399.851 38.1351 399.957 38.1755 395.932 42.6216ZM136.838 179.459V314.054H229.932H323.027V179.459V44.8649H229.932H136.838V179.459ZM10.4423 51.211C7.58889 54.3628 6.72973 59.8116 6.72973 74.7651C6.72973 90.5597 6.09714 94.2162 3.36486 94.2162C0.672973 94.2162 0 97.5811 0 111.041C0 124.5 0.672973 127.865 3.36486 127.865C6.25865 127.865 6.72973 135.093 6.72973 179.459C6.72973 223.826 6.25865 231.054 3.36486 231.054C0.695405 231.054 0 234.293 0 246.757C0 259.22 0.695405 262.459 3.36486 262.459C6.10835 262.459 6.74319 266.291 6.79927 283.209C6.86657 302.649 7.221 304.213 12.4074 307.991L17.9459 312.019V179.565C17.9459 106.713 17.0935 47.1081 16.0504 47.1081C15.0073 47.1081 12.4837 48.9543 10.4423 51.211ZM444.162 179.459C444.162 312.365 444.167 312.502 448.649 308.446C452.494 304.967 453.135 301.537 453.135 284.475C453.135 268.844 453.86 264.283 456.5 263.272C459.033 262.298 459.865 258.22 459.865 246.757C459.865 235.294 459.033 231.216 456.5 230.242C453.647 229.147 453.135 221.267 453.135 178.407C453.135 134.976 453.608 127.865 456.5 127.865C459.192 127.865 459.865 124.5 459.865 111.041C459.865 97.5811 459.192 94.2162 456.5 94.2162C453.763 94.2162 453.135 90.5171 453.135 74.3747C453.135 57.3822 452.491 53.95 448.649 50.473C444.167 46.4172 444.162 46.554 444.162 179.459ZM95.4679 53.5395C98.3976 55.8433 100.163 58.358 99.3936 59.1297C98.6242 59.8991 96.6322 59.3988 94.9677 58.017C93.0407 56.4176 85.4294 55.8837 74.0001 56.5454C56.7069 57.5459 56.191 57.4338 59.7802 53.4677C65.063 47.6308 88.0159 47.6779 95.4679 53.5395ZM400.215 53.277C405.06 57.0883 404.571 57.2027 383.343 57.2027C362.665 57.2027 361.674 56.9896 365.034 53.277C367.659 50.3788 372.071 49.3513 381.905 49.3513C391.195 49.3513 396.736 50.5403 400.215 53.277ZM273.676 94.2162V127.865H231.054H188.432V94.2162V60.5676H231.054H273.676V94.2162ZM60.5676 91.973C58.7169 93.1686 49.3805 94.1624 39.8176 94.1826L22.4324 94.2162V109.919V125.622H38.9091C52.5368 125.622 56.0878 124.845 59.4459 121.135C62.674 117.568 66.3551 116.649 77.3919 116.649C88.4286 116.649 92.1098 117.568 95.3378 121.135C98.696 124.845 102.247 125.622 115.875 125.622H132.351V109.919V94.2162H114.538C104.739 94.2162 96.1005 93.2068 95.3378 91.973C93.5612 89.0994 65.0137 89.0994 60.5676 91.973ZM366.77 91.973C366.008 93.2068 356.864 94.2162 346.449 94.2162H327.514V109.919V125.622H344.919C359.897 125.622 362.717 124.996 365.128 121.135C367.45 117.416 370.359 116.649 382.143 116.649C393.51 116.649 397.173 117.548 400.419 121.135C403.777 124.845 407.328 125.622 420.956 125.622H437.432V109.919V94.2162H419.619C409.82 94.2162 401.182 93.2068 400.419 91.973C399.656 90.7392 392.085 89.7297 383.595 89.7297C375.104 89.7297 367.533 90.7392 366.77 91.973ZM300.595 109.919C303.062 112.386 305.081 116.929 305.081 120.014C305.081 123.098 303.062 127.641 300.595 130.108C298.127 132.576 293.584 134.595 290.5 134.595C287.416 134.595 282.873 132.576 280.405 130.108C277.938 127.641 275.919 123.098 275.919 120.014C275.919 116.929 277.938 112.386 280.405 109.919C282.873 107.451 287.416 105.432 290.5 105.432C293.584 105.432 298.127 107.451 300.595 109.919ZM61.7969 125.447C60.9198 126.867 52.4829 127.865 41.3676 127.865H22.4324V143.568V159.27H39.8378C54.8159 159.27 57.6357 158.644 60.0471 154.784C62.3689 151.064 65.2784 150.297 77.0621 150.297C88.4286 150.297 92.0919 151.197 95.3378 154.784C98.696 158.494 102.247 159.27 115.875 159.27H132.351V143.731V128.195L113.845 126.954C103.665 126.274 88.1281 125.11 79.3143 124.372C68.8833 123.497 62.7704 123.872 61.7969 125.447ZM366.77 125.622C366.008 126.855 356.864 127.865 346.449 127.865H327.514V143.568V159.27H344.919C359.897 159.27 362.717 158.644 365.128 154.784C367.45 151.064 370.359 150.297 382.143 150.297C393.51 150.297 397.173 151.197 400.419 154.784C403.777 158.494 407.328 159.27 420.956 159.27H437.432V143.568V127.865H419.619C409.82 127.865 401.182 126.855 400.419 125.622C399.656 124.388 392.085 123.378 383.595 123.378C375.104 123.378 367.533 124.388 366.77 125.622ZM294.567 152.103L300.595 158.393V198.772V239.148L293.304 246.05L286.014 252.953L229.147 252.614L172.281 252.275L165.776 244.994L159.27 237.712V199.16V160.605L166.44 153.209L173.609 145.811H231.074H288.539L294.567 152.103ZM171.041 155.345C166.68 160.015 166.287 163.281 165.778 199.095C165.242 236.974 165.34 237.914 170.493 243.399L175.756 249H229.031H282.305L289.206 243.192L296.108 237.384V200.133V162.88L290.081 156.59L284.053 150.297H229.903C176.642 150.297 175.677 150.38 171.041 155.345ZM61.6892 159.27C60.9265 160.504 51.783 161.514 41.3676 161.514H22.4324V177.216V192.919H39.8378C54.8159 192.919 57.6357 192.293 60.0471 188.432C62.3689 184.713 65.2784 183.946 77.0621 183.946C88.4286 183.946 92.0919 184.845 95.3378 188.432C98.696 192.143 102.247 192.919 115.875 192.919H132.351V177.216V161.514H113.416C103.001 161.514 93.8573 160.504 93.0946 159.27C92.3319 158.036 85.2657 157.027 77.3919 157.027C69.5181 157.027 62.4519 158.036 61.6892 159.27ZM366.878 159.095C366.001 160.515 357.564 161.514 346.449 161.514H327.514V177.216V192.919H345.112C359.861 192.919 363.367 192.192 366.77 188.432C369.924 184.946 373.679 183.946 383.595 183.946C393.51 183.946 397.265 184.946 400.419 188.432C403.777 192.143 407.328 192.919 420.956 192.919H437.432V177.38V161.843L418.926 160.603C408.748 159.923 393.209 158.759 384.395 158.021C373.964 157.146 367.852 157.521 366.878 159.095ZM277.458 166.39C282.355 170.991 282.649 172.882 282.649 199.691C282.649 223.947 282.072 228.622 278.723 231.577C275.47 234.444 267.289 235.038 231.054 235.038C194.819 235.038 186.638 234.444 183.385 231.577C177.701 226.565 177.524 171.857 183.172 165.616C186.521 161.915 191.066 161.514 229.576 161.514C270.318 161.514 272.502 161.736 277.458 166.39ZM61.6892 192.919C60.9265 194.153 51.783 195.162 41.3676 195.162H22.4324V210.865V226.568H39.4631C53.0976 226.568 57.6334 225.673 62.1984 222.081C66.2452 218.898 71.2992 217.595 79.5903 217.595C88.4286 217.595 92.2668 218.689 95.3378 222.081C98.696 225.791 102.247 226.568 115.875 226.568H132.351V210.865V195.162H113.416C103.001 195.162 93.8573 194.153 93.0946 192.919C92.3319 191.685 85.2657 190.676 77.3919 190.676C69.5181 190.676 62.4519 191.685 61.6892 192.919ZM367.892 192.919C366.041 194.115 356.198 195.108 346.02 195.129L327.514 195.162V210.865V226.568H344.544C358.179 226.568 362.714 225.673 367.279 222.081C371.326 218.898 376.38 217.595 384.671 217.595C393.51 217.595 397.348 218.689 400.419 222.081C403.777 225.791 407.328 226.568 420.956 226.568H437.432V210.865V195.162H418.497C408.082 195.162 398.938 194.153 398.176 192.919C396.401 190.048 372.333 190.048 367.892 192.919ZM61.6892 226.568C60.9265 227.801 51.783 228.811 41.3676 228.811H22.4324V244.514V260.216H40.1047C53.0751 260.216 58.5172 259.321 60.5676 256.851C62.5102 254.512 67.6697 253.486 77.5063 253.486C87.0894 253.486 92.7379 254.572 95.0171 256.851C97.4151 259.249 103.261 260.216 115.368 260.216H132.351V244.514V228.811H113.416C103.001 228.811 93.8573 227.801 93.0946 226.568C92.3319 225.334 85.2657 224.324 77.3919 224.324C69.5181 224.324 62.4519 225.334 61.6892 226.568ZM367.892 226.568C366.041 227.763 356.198 228.757 346.02 228.777L327.514 228.811V244.514V260.216H345.186C358.156 260.216 363.598 259.321 365.649 256.851C367.627 254.469 372.861 253.486 383.595 253.486C394.329 253.486 399.562 254.469 401.541 256.851C403.562 259.285 408.91 260.216 420.882 260.216H437.432V244.514V228.811H418.497C408.082 228.811 398.938 227.801 398.176 226.568C396.401 223.696 372.333 223.696 367.892 226.568ZM62.8108 260.216C60.9601 261.412 51.119 262.406 40.9392 262.426L22.4324 262.459V278.162V293.865H40.1047C53.0751 293.865 58.5172 292.97 60.5676 290.5C62.5057 288.165 67.6562 287.135 77.3919 287.135C87.1276 287.135 92.2781 288.165 94.2162 290.5C96.2665 292.97 101.709 293.865 114.679 293.865H132.351V278.162V262.459H113.416C103.001 262.459 93.8573 261.45 93.0946 260.216C91.3202 257.345 67.2524 257.345 62.8108 260.216ZM369.014 260.216C368.251 261.45 358.603 262.459 347.57 262.459H327.514V278.162V293.865H345.186C358.156 293.865 363.598 292.97 365.649 290.5C367.627 288.118 372.861 287.135 383.595 287.135C394.329 287.135 399.562 288.118 401.541 290.5C403.562 292.934 408.91 293.865 420.882 293.865H437.432V278.162V262.459H418.497C408.082 262.459 398.938 261.45 398.176 260.216C397.413 258.982 390.852 257.973 383.595 257.973C376.338 257.973 369.776 258.982 369.014 260.216ZM205.257 274.553C205.257 290.058 201.614 294.26 191.972 289.865C186.806 287.512 186.189 285.951 186.189 275.219C186.189 268.613 186.909 262.486 187.791 261.605C188.672 260.723 192.964 260.304 197.325 260.669L205.257 261.338V274.553ZM238.905 274.553C238.905 290.058 235.262 294.26 225.621 289.865C220.455 287.512 219.838 285.951 219.838 275.219C219.838 268.613 220.558 262.486 221.439 261.605C222.321 260.723 226.612 260.304 230.973 260.669L238.905 261.338V274.553ZM273.597 264.555C279.044 274.734 274.739 288.903 265.764 290.334C257.246 291.691 253.486 287.653 253.486 277.146C253.486 262.823 255.066 260.216 263.743 260.216C268.893 260.216 272.009 261.587 273.597 264.555ZM43.1824 295.384L22.4324 296.276V306.968C22.4324 316.118 23.5002 318.695 29.8306 324.831L37.2266 332H77.8876C118.358 332 118.58 331.973 125.449 326.192C131.591 321.026 132.351 319.047 132.351 308.246V296.108H121.485C115.507 296.108 100.114 295.745 87.2756 295.301C74.4375 294.856 54.5938 294.892 43.1824 295.384ZM348.824 295.819L328.635 297.23L327.931 307.069C327.318 315.62 328.184 317.897 334.539 324.454L341.852 332H382.74C423.457 332 423.659 331.975 430.53 326.192C436.672 321.026 437.432 319.047 437.432 308.246V296.108H426.566C420.588 296.108 405.195 295.725 392.357 295.258C379.519 294.791 359.928 295.043 348.824 295.819Z" fill="#281D17"/>
</svg>
