<svg width="494" height="378" viewBox="0 0 494 378" fill="none" xmlns="http://www.w3.org/2000/svg">
<path fill-rule="evenodd" clip-rule="evenodd" d="M60.1723 1.20611C59.1751 2.20332 58.3605 6.25303 58.3605 10.2089C58.3605 16.9051 57.6628 17.3974 48.2109 17.3974H38.0612V197.554V377.71H52.017H65.9728V357.411C65.9728 345.569 67.0309 337.112 68.5102 337.112C69.9895 337.112 71.0476 345.569 71.0476 357.411V377.71H87.5408H104.034V357.411C104.034 345.569 105.092 337.112 106.571 337.112C108.051 337.112 109.109 345.569 109.109 357.411V377.71H125.602H142.095V357.411C142.095 345.569 143.153 337.112 144.633 337.112C146.112 337.112 147.17 345.569 147.17 357.411V377.71H163.663H180.156V357.411C180.156 345.569 181.215 337.112 182.694 337.112C184.176 337.112 185.231 345.609 185.231 357.533V377.951L201.09 377.198L216.949 376.442L217.692 356.693C218.641 331.43 223.292 333.204 223.292 358.829V377.71H238.517H253.741V358.829C253.741 333.204 258.393 331.43 259.342 356.693L260.085 376.442L275.944 377.198L291.803 377.951V357.533C291.803 345.609 292.858 337.112 294.34 337.112C295.819 337.112 296.878 345.569 296.878 357.411V377.71H313.371H329.864V357.411C329.864 345.569 330.922 337.112 332.401 337.112C333.881 337.112 334.939 345.569 334.939 357.411V377.71H351.432H367.925V357.411C367.925 345.569 368.983 337.112 370.463 337.112C371.942 337.112 373 345.569 373 357.411V377.71H389.493H405.986V357.411C405.986 345.569 407.044 337.112 408.524 337.112C410.003 337.112 411.061 345.569 411.061 357.411V377.71H427.554H444.048V357.411C444.048 345.569 445.106 337.112 446.585 337.112C448.064 337.112 449.122 345.569 449.122 357.411V377.71H464.347H479.571V197.554V17.3974H468.313C457.468 17.3974 457.026 17.0954 456.26 9.15076C455.529 1.56896 454.75 0.90416 446.585 0.90416C438.42 0.90416 437.641 1.56896 436.91 9.15076C436.131 17.2324 435.864 17.3974 423.588 17.3974H411.061V36.2783C411.061 46.6639 409.919 55.8646 408.524 56.7273C406.913 57.722 405.986 50.8329 405.986 37.8464V17.3974H389.493H373V37.8464C373 50.8329 372.074 57.722 370.463 56.7273C369.067 55.8646 367.925 46.6639 367.925 36.2783V17.3974H351.432H334.939V37.8464C334.939 50.8329 334.013 57.722 332.401 56.7273C331.006 55.8646 329.864 46.6639 329.864 36.2783V17.3974H313.371H296.878V37.8464C296.878 50.8329 295.951 57.722 294.34 56.7273C292.945 55.8646 291.803 46.6639 291.803 36.2783V17.3974H275.31H258.816L258.525 38.331C258.273 56.2959 257.936 57.826 256.134 49.115C254.98 43.5327 253.967 34.1113 253.889 28.1814L253.741 17.3974H238.517H223.292L222.973 30.7188C222.46 51.9316 222.138 54.9054 220.121 56.9303C219.075 57.9808 218.218 49.516 218.218 38.1204V17.3974H201.724H185.231V36.2783C185.231 46.6639 184.089 55.8646 182.694 56.7273C181.083 57.722 180.156 50.8329 180.156 37.8464V17.3974H163.663H147.17V36.2783C147.17 46.6639 146.028 55.8646 144.633 56.7273C143.021 57.722 142.095 50.8329 142.095 37.8464V17.3974H125.602H109.109V36.2783C109.109 46.6639 107.967 55.8646 106.571 56.7273C104.96 57.722 104.034 50.8329 104.034 37.8464V17.3974H91.5068C79.2308 17.3974 78.9643 17.2324 78.1854 9.15076C77.5003 2.03585 76.3356 0.800124 69.6876 0.150546C65.4501 -0.26559 61.1695 0.211445 60.1723 1.20611ZM25.3741 53.6519V89.904L12.6871 102.401L0 114.898V137.925V160.952L12.6871 173.448L25.3741 185.945V215.316V244.686L12.6871 257.183L0 269.68V292.707V315.734L12.6871 328.231L25.3741 340.728V359.218C25.3741 373.965 26.1455 377.71 29.1803 377.71C32.5271 377.71 32.9864 356 32.9864 197.554C32.9864 39.1075 32.5271 17.3974 29.1803 17.3974C25.9755 17.3974 25.3741 23.1167 25.3741 53.6519ZM71.0476 37.8464C71.0476 50.8329 70.1215 57.722 68.5102 56.7273C67.1146 55.8646 65.9728 46.6639 65.9728 36.2783C65.9728 25.3826 67.0461 17.3974 68.5102 17.3974C69.9921 17.3974 71.0476 25.9053 71.0476 37.8464ZM449.122 36.2783C449.122 46.6639 447.981 55.8646 446.585 56.7273C444.974 57.722 444.048 50.8329 444.048 37.8464C444.048 25.9053 445.103 17.3974 446.585 17.3974C448.049 17.3974 449.122 25.3826 449.122 36.2783ZM484.646 26.2783C484.646 33.7256 485.514 35.3648 489.087 34.6772C492.129 34.091 493.527 31.4445 493.527 26.2783C493.527 21.1121 492.129 18.4656 489.087 17.8795C485.514 17.1918 484.646 18.831 484.646 26.2783ZM476.552 70.0487L475.765 79.564H258.816H41.8673L41.0807 70.0487L40.2916 60.5334H258.816H477.341L476.552 70.0487ZM484.646 197.554C484.646 307.706 484.91 314.597 489.087 313.793C493.238 312.993 493.527 305.424 493.527 197.554C493.527 89.6832 493.238 82.1141 489.087 81.3148C484.91 80.5105 484.646 87.4021 484.646 197.554ZM71.0476 197.704C71.0476 273.28 70.1874 311.507 68.5102 310.469C66.8812 309.461 65.9728 268.576 65.9728 196.135C65.9728 122.649 66.8558 83.3701 68.5102 83.3701C70.1646 83.3701 71.0476 123.172 71.0476 197.704ZM109.109 196.285C109.109 269.87 108.226 309.2 106.571 309.2C104.917 309.2 104.034 269.87 104.034 196.285C104.034 122.7 104.917 83.3701 106.571 83.3701C108.226 83.3701 109.109 122.7 109.109 196.285ZM147.17 196.135C147.17 268.576 146.262 309.461 144.633 310.469C142.955 311.507 142.095 273.28 142.095 197.704C142.095 123.172 142.978 83.3701 144.633 83.3701C146.287 83.3701 147.17 122.649 147.17 196.135ZM185.231 196.135C185.231 268.576 184.323 309.461 182.694 310.469C181.017 311.507 180.156 273.28 180.156 197.704C180.156 123.172 181.039 83.3701 182.694 83.3701C184.348 83.3701 185.231 122.649 185.231 196.135ZM222.574 198.287C222.272 259.987 221.166 310.182 220.121 309.834C219.075 309.487 218.218 308.629 218.218 307.931C218.218 307.234 218.218 256.353 218.218 194.867C218.218 123.52 219.106 83.6188 220.671 84.5881C222.206 85.5346 222.92 128.161 222.574 198.287ZM259.276 309.875C258.829 310.946 257.403 311.164 256.104 310.36C253.277 308.614 252.825 87.6685 255.645 84.8495C257.431 83.0606 261.021 305.681 259.276 309.875ZM296.878 197.704C296.878 273.28 296.017 311.507 294.34 310.469C292.711 309.461 291.803 268.576 291.803 196.135C291.803 122.649 292.686 83.3701 294.34 83.3701C295.995 83.3701 296.878 123.172 296.878 197.704ZM334.939 197.704C334.939 273.28 334.079 311.507 332.401 310.469C330.772 309.461 329.864 268.576 329.864 196.135C329.864 122.649 330.747 83.3701 332.401 83.3701C334.056 83.3701 334.939 123.172 334.939 197.704ZM373 197.704C373 273.28 372.14 311.507 370.463 310.469C368.834 309.461 367.925 268.576 367.925 196.135C367.925 122.649 368.808 83.3701 370.463 83.3701C372.117 83.3701 373 123.172 373 197.704ZM411.061 197.704C411.061 273.28 410.201 311.507 408.524 310.469C406.895 309.461 405.986 268.576 405.986 196.135C405.986 122.649 406.869 83.3701 408.524 83.3701C410.178 83.3701 411.061 123.172 411.061 197.704ZM449.122 196.135C449.122 268.576 448.214 309.461 446.585 310.469C444.908 311.507 444.048 273.28 444.048 197.704C444.048 123.172 444.931 83.3701 446.585 83.3701C448.239 83.3701 449.122 122.649 449.122 196.135ZM77.6144 97.9476C74.8436 100.718 72.9431 96.311 74.9324 91.7259C76.8202 87.3793 76.9573 87.3818 78.0077 91.8147C78.6142 94.3673 78.4366 97.1255 77.6144 97.9476ZM342.551 94.0273C342.551 98.1252 341.8 98.8585 339.727 96.7855C338.174 95.2326 337.672 92.7205 338.608 91.2032C341.234 86.9555 342.551 87.8994 342.551 94.0273ZM45.6735 94.7885C45.6735 96.8819 44.5316 98.5946 43.1361 98.5946C41.7405 98.5946 40.5986 96.8819 40.5986 94.7885C40.5986 92.6951 41.7405 90.9824 43.1361 90.9824C44.5316 90.9824 45.6735 92.6951 45.6735 94.7885ZM116.721 94.7885C116.721 96.8819 115.579 98.5946 114.184 98.5946C112.788 98.5946 111.646 96.8819 111.646 94.7885C111.646 92.6951 112.788 90.9824 114.184 90.9824C115.579 90.9824 116.721 92.6951 116.721 94.7885ZM154.782 94.7885C154.782 96.8819 153.64 98.5946 152.245 98.5946C150.849 98.5946 149.707 96.8819 149.707 94.7885C149.707 92.6951 150.849 90.9824 152.245 90.9824C153.64 90.9824 154.782 92.6951 154.782 94.7885ZM192.844 94.7885C192.844 96.8819 191.702 98.5946 190.306 98.5946C188.911 98.5946 187.769 96.8819 187.769 94.7885C187.769 92.6951 188.911 90.9824 190.306 90.9824C191.702 90.9824 192.844 92.6951 192.844 94.7885ZM230.905 94.7885C230.905 96.8819 229.763 98.5946 228.367 98.5946C226.972 98.5946 225.83 96.8819 225.83 94.7885C225.83 92.6951 226.972 90.9824 228.367 90.9824C229.763 90.9824 230.905 92.6951 230.905 94.7885ZM268.966 94.7885C268.966 96.8819 267.824 98.5946 266.429 98.5946C265.033 98.5946 263.891 96.8819 263.891 94.7885C263.891 92.6951 265.033 90.9824 266.429 90.9824C267.824 90.9824 268.966 92.6951 268.966 94.7885ZM307.027 93.3701C307.027 94.6845 305.885 96.4632 304.49 97.3259C303.094 98.1887 301.952 97.1128 301.952 94.9382C301.952 92.7637 303.094 90.9824 304.49 90.9824C305.885 90.9824 307.027 92.0557 307.027 93.3701ZM380.612 94.7885C380.612 96.8819 379.47 98.5946 378.075 98.5946C376.679 98.5946 375.537 96.8819 375.537 94.7885C375.537 92.6951 376.679 90.9824 378.075 90.9824C379.47 90.9824 380.612 92.6951 380.612 94.7885ZM418.673 94.7885C418.673 96.8819 417.532 98.5946 416.136 98.5946C414.74 98.5946 413.599 96.8819 413.599 94.7885C413.599 92.6951 414.74 90.9824 416.136 90.9824C417.532 90.9824 418.673 92.6951 418.673 94.7885ZM456.735 94.7885C456.735 96.8819 455.593 98.5946 454.197 98.5946C452.802 98.5946 451.66 96.8819 451.66 94.7885C451.66 92.6951 452.802 90.9824 454.197 90.9824C455.593 90.9824 456.735 92.6951 456.735 94.7885ZM24.8489 157.706L24.1054 175.986L14.5901 166.724C5.21946 157.605 5.07483 157.163 5.07483 137.925C5.07483 118.686 5.21946 118.244 14.5901 109.125L24.1054 99.8633L24.8489 119.645C25.2574 130.523 25.2574 147.65 24.8489 157.706ZM45.6735 157.463C45.6735 161.561 44.9224 162.294 42.8493 160.221C41.2964 158.668 40.794 156.156 41.7303 154.639C44.3565 150.391 45.6735 151.335 45.6735 157.463ZM78.6599 157.463C78.6599 161.561 77.9088 162.294 75.8357 160.221C74.2828 158.668 73.7804 156.156 74.7167 154.639C77.3429 150.391 78.6599 151.335 78.6599 157.463ZM115.676 161.383C112.905 164.154 111.004 159.746 112.994 155.161C114.881 150.815 115.018 150.817 116.069 155.25C116.675 157.803 116.498 160.561 115.676 161.383ZM154.782 156.955C154.782 159.746 153.64 162.03 152.245 162.03C150.849 162.03 149.707 159.746 149.707 156.955C149.707 154.164 150.849 151.88 152.245 151.88C153.64 151.88 154.782 154.164 154.782 156.955ZM192.844 158.374C192.844 160.386 191.702 162.03 190.306 162.03C188.911 162.03 187.769 159.678 187.769 156.805C187.769 153.933 188.911 152.286 190.306 153.149C191.702 154.012 192.844 156.361 192.844 158.374ZM230.905 158.374C230.905 160.386 229.763 162.03 228.367 162.03C226.972 162.03 225.83 159.678 225.83 156.805C225.83 153.933 226.972 152.286 228.367 153.149C229.763 154.012 230.905 156.361 230.905 158.374ZM266.936 160C264.569 162.367 263.891 161.693 263.891 156.955C263.891 152.218 264.569 151.543 266.936 153.91C269.303 156.278 269.303 157.633 266.936 160ZM304.997 160C302.63 162.367 301.952 161.693 301.952 156.955C301.952 152.218 302.63 151.543 304.997 153.91C307.365 156.278 307.365 157.633 304.997 160ZM342.551 157.463C342.551 161.561 341.8 162.294 339.727 160.221C338.174 158.668 337.672 156.156 338.608 154.639C341.234 150.391 342.551 151.335 342.551 157.463ZM380.612 157.463C380.612 161.561 379.861 162.294 377.788 160.221C376.235 158.668 375.733 156.156 376.669 154.639C379.295 150.391 380.612 151.335 380.612 157.463ZM417.628 161.383C414.857 164.154 412.957 159.746 414.946 155.161C416.834 150.815 416.971 150.817 418.021 155.25C418.628 157.803 418.45 160.561 417.628 161.383ZM455.689 161.383C452.918 164.154 451.018 159.746 453.007 155.161C454.895 150.815 455.032 150.817 456.083 155.25C456.689 157.803 456.511 160.561 455.689 161.383ZM45.6735 236.884C45.6735 238.977 44.5316 240.69 43.1361 240.69C41.7405 240.69 40.5986 238.977 40.5986 236.884C40.5986 234.79 41.7405 233.078 43.1361 233.078C44.5316 233.078 45.6735 234.79 45.6735 236.884ZM78.6599 236.884C78.6599 238.977 77.518 240.69 76.1224 240.69C74.7269 240.69 73.585 238.977 73.585 236.884C73.585 234.79 74.7269 233.078 76.1224 233.078C77.518 233.078 78.6599 234.79 78.6599 236.884ZM116.721 236.884C116.721 238.977 115.579 240.69 114.184 240.69C112.788 240.69 111.646 238.977 111.646 236.884C111.646 234.79 112.788 233.078 114.184 233.078C115.579 233.078 116.721 234.79 116.721 236.884ZM154.782 236.884C154.782 238.977 153.64 240.69 152.245 240.69C150.849 240.69 149.707 238.977 149.707 236.884C149.707 234.79 150.849 233.078 152.245 233.078C153.64 233.078 154.782 234.79 154.782 236.884ZM192.844 236.884C192.844 238.977 191.702 240.69 190.306 240.69C188.911 240.69 187.769 238.977 187.769 236.884C187.769 234.79 188.911 233.078 190.306 233.078C191.702 233.078 192.844 234.79 192.844 236.884ZM230.905 236.884C230.905 238.977 229.763 240.69 228.367 240.69C226.972 240.69 225.83 238.977 225.83 236.884C225.83 234.79 226.972 233.078 228.367 233.078C229.763 233.078 230.905 234.79 230.905 236.884ZM268.966 236.884C268.966 238.977 267.824 240.69 266.429 240.69C265.033 240.69 263.891 238.977 263.891 236.884C263.891 234.79 265.033 233.078 266.429 233.078C267.824 233.078 268.966 234.79 268.966 236.884ZM307.027 238.302C307.027 239.617 305.885 240.69 304.49 240.69C303.094 240.69 301.952 238.909 301.952 236.734C301.952 234.559 303.094 233.484 304.49 234.346C305.885 235.209 307.027 236.988 307.027 238.302ZM342.551 236.884C342.551 238.977 341.409 240.69 340.014 240.69C338.618 240.69 337.476 238.977 337.476 236.884C337.476 234.79 338.618 233.078 340.014 233.078C341.409 233.078 342.551 234.79 342.551 236.884ZM380.612 236.884C380.612 238.977 379.47 240.69 378.075 240.69C376.679 240.69 375.537 238.977 375.537 236.884C375.537 234.79 376.679 233.078 378.075 233.078C379.47 233.078 380.612 234.79 380.612 236.884ZM418.673 236.884C418.673 238.977 417.532 240.69 416.136 240.69C414.74 240.69 413.599 238.977 413.599 236.884C413.599 234.79 414.74 233.078 416.136 233.078C417.532 233.078 418.673 234.79 418.673 236.884ZM456.735 236.884C456.735 238.977 455.593 240.69 454.197 240.69C452.802 240.69 451.66 238.977 451.66 236.884C451.66 234.79 452.802 233.078 454.197 233.078C455.593 233.078 456.735 234.79 456.735 236.884ZM25.3741 293.976C25.3741 313.514 24.8438 329.499 24.1943 329.499C23.5447 329.499 18.9773 325.955 14.0446 321.623C5.2626 313.915 5.07483 313.346 5.07483 294.587C5.07483 277.954 5.92994 274.303 11.5478 266.937C23.6436 251.078 25.3741 254.46 25.3741 293.976ZM44.628 303.478C41.8572 306.249 39.9567 301.842 41.946 297.256C43.8338 292.91 43.9709 292.912 45.0214 297.345C45.6278 299.898 45.4502 302.656 44.628 303.478ZM77.6144 303.478C74.8436 306.249 72.9431 301.842 74.9324 297.256C76.8202 292.91 76.9573 292.912 78.0077 297.345C78.6142 299.898 78.4366 302.656 77.6144 303.478ZM115.676 303.478C112.905 306.249 111.004 301.842 112.994 297.256C114.881 292.91 115.018 292.912 116.069 297.345C116.675 299.898 116.498 302.656 115.676 303.478ZM230.905 300.469C230.905 302.481 229.763 304.125 228.367 304.125C226.972 304.125 225.83 301.773 225.83 298.901C225.83 296.028 226.972 294.382 228.367 295.244C229.763 296.107 230.905 298.457 230.905 300.469ZM268.966 300.469C268.966 302.481 267.824 304.125 266.429 304.125C265.033 304.125 263.891 301.773 263.891 298.901C263.891 296.028 265.033 294.382 266.429 295.244C267.824 296.107 268.966 298.457 268.966 300.469ZM304.997 302.095C302.63 304.463 301.952 303.788 301.952 299.05C301.952 294.313 302.63 293.638 304.997 296.006C307.365 298.373 307.365 299.728 304.997 302.095ZM342.551 299.558C342.551 303.656 341.8 304.389 339.727 302.316C338.174 300.763 337.672 298.251 338.608 296.734C341.234 292.486 342.551 293.43 342.551 299.558ZM379.567 303.478C376.796 306.249 374.895 301.842 376.885 297.256C378.773 292.91 378.91 292.912 379.96 297.345C380.567 299.898 380.389 302.656 379.567 303.478ZM417.628 303.478C414.857 306.249 412.957 301.842 414.946 297.256C416.834 292.91 416.971 292.912 418.021 297.345C418.628 299.898 418.45 302.656 417.628 303.478ZM154.782 300.319C154.782 302.413 153.64 304.125 152.245 304.125C150.849 304.125 149.707 302.413 149.707 300.319C149.707 298.226 150.849 296.513 152.245 296.513C153.64 296.513 154.782 298.226 154.782 300.319ZM192.844 300.319C192.844 302.413 191.702 304.125 190.306 304.125C188.911 304.125 187.769 302.413 187.769 300.319C187.769 298.226 188.911 296.513 190.306 296.513C191.702 296.513 192.844 298.226 192.844 300.319ZM456.735 300.319C456.735 302.413 455.593 304.125 454.197 304.125C452.802 304.125 451.66 302.413 451.66 300.319C451.66 298.226 452.802 296.513 454.197 296.513C455.593 296.513 456.735 298.226 456.735 300.319ZM476.552 323.79L475.765 333.306H258.816H41.8673L41.0807 323.79L40.2916 314.275H258.816H477.341L476.552 323.79ZM484.646 368.829C484.646 376.277 485.514 377.916 489.087 377.228C492.129 376.642 493.527 373.996 493.527 368.829C493.527 363.663 492.129 361.017 489.087 360.431C485.514 359.743 484.646 361.382 484.646 368.829Z" fill="#281D17"/>
</svg>
