<svg width="407" height="437" viewBox="0 0 407 437" fill="none" xmlns="http://www.w3.org/2000/svg">
<path fill-rule="evenodd" clip-rule="evenodd" d="M294.349 3.00611C290.508 5.244 289.478 9.63627 289.478 23.7984V41.7516H306.178H322.879V20.8758V0L311.049 0.0835024C304.542 0.130821 297.029 1.4446 294.349 3.00611ZM123.702 47.5801C122.844 48.9663 125.349 50.1019 129.266 50.1019C137.794 50.1019 138.484 48.5154 130.824 46.5141C127.765 45.7124 124.559 46.194 123.702 47.5801ZM228.242 47.3185C228.242 48.8494 231.062 50.0824 234.505 50.0602C239.568 50.024 239.969 49.5007 236.592 47.3185C231.195 43.8308 228.242 43.8308 228.242 47.3185ZM24.3551 61.5084C11.2089 75.4924 11.1338 75.6817 11.1338 94.8457C11.1338 112.264 10.5966 114.121 5.56688 114.121C0.759879 114.121 0 115.978 0 127.713C0 138.966 0.957503 141.557 5.56688 142.763C8.89866 143.634 11.1338 146.559 11.1338 150.044C11.1338 154.665 12.8651 155.873 19.4841 155.873C26.5345 155.873 27.8344 154.79 27.8344 148.914C27.8344 143.038 26.5345 141.955 19.4841 141.955C11.4427 141.955 11.1338 141.491 11.1338 129.43C11.1338 117.506 11.5151 116.904 19.0944 116.904C26.7405 116.904 27.1191 116.273 28.6945 100.9C30.05 87.6589 31.8064 83.5728 38.8707 77.2404C47.2183 69.7558 48.173 69.586 82.156 69.586C117.517 69.586 122.471 67.9159 113.564 59.0089C110.967 56.412 110.967 55.6688 113.564 55.6688C115.401 55.6688 116.904 53.79 116.904 51.4936C116.904 47.9754 110.67 47.3296 77.2404 47.3825L37.5764 47.4465L24.3551 61.5084ZM141.955 58.4522V69.586H182.315H222.675V58.4522V47.3185H182.315H141.955V58.4522ZM244.943 51.2626C244.943 53.4309 246.51 55.936 248.422 56.8295C251.205 58.1266 251.205 58.7779 248.422 60.075C246.51 60.9685 244.943 63.4736 244.943 65.6419C244.943 68.8261 251.42 69.586 278.611 69.586C324.577 69.586 334.013 75.5342 334.013 104.51C334.013 116.857 334.049 116.904 343.913 116.904H353.817L352.96 128.734C352.158 139.837 351.551 140.617 343.059 141.435C335.566 142.159 334.013 143.472 334.013 149.089C334.013 154.77 335.368 155.873 342.363 155.873C348.982 155.873 350.713 154.665 350.713 150.044C350.713 146.559 352.948 143.634 356.28 142.763C360.89 141.557 361.847 138.966 361.847 127.713C361.847 115.978 361.087 114.121 356.28 114.121C351.223 114.121 350.713 112.264 350.713 93.8353V73.5524L337.397 60.434L324.079 47.3185H284.512C252.23 47.3185 244.943 48.0449 244.943 51.2626ZM122.471 66.8025C122.471 68.3334 125.603 69.586 129.43 69.586C133.257 69.586 136.389 68.3334 136.389 66.8025C136.389 65.2717 133.257 64.0191 129.43 64.0191C125.603 64.0191 122.471 65.2717 122.471 66.8025ZM228.242 66.8025C228.242 68.3334 230.747 69.586 233.809 69.586C236.871 69.586 239.376 68.3334 239.376 66.8025C239.376 65.2717 236.871 64.0191 233.809 64.0191C230.747 64.0191 228.242 65.2717 228.242 66.8025ZM41.5373 83.2889C34.9155 89.9107 33.4013 93.7963 33.4013 104.165V116.904H75.1529H116.904V96.0287V75.1529H83.2889C49.8458 75.1529 49.6315 75.1946 41.5373 83.2889ZM122.471 96.0287C122.471 116.44 122.627 116.904 129.43 116.904C136.233 116.904 136.389 116.44 136.389 96.0287C136.389 75.6177 136.233 75.1529 129.43 75.1529C122.627 75.1529 122.471 75.6177 122.471 96.0287ZM142.253 107.858C142.777 125.848 142.921 153.401 142.579 169.094L141.955 197.624H132.213H122.471V302.003V406.382H180.924H239.376V302.003V197.624H231.025H222.675V169.954C222.675 154.509 221.445 141.524 219.892 140.564C218.361 139.617 217.108 133.981 217.108 128.038C217.108 122.096 218.361 116.459 219.892 115.513C221.423 114.566 222.675 105.1 222.675 94.4727V75.1529H181.99H141.304L142.253 107.858ZM226.032 95.3328C226.784 113.851 227.365 115.585 233.113 116.403C239.134 117.258 239.376 116.479 239.376 96.2235C239.376 75.5064 239.256 75.1529 232.295 75.1529C225.286 75.1529 225.222 75.3561 226.032 95.3328ZM244.943 96.0287V116.904H286.694H328.446V102.862C328.446 91.6614 327.062 87.4334 321.613 81.9862C315.085 75.4563 313.226 75.1529 279.861 75.1529H244.943V96.0287ZM211.004 128.734L210.15 140.564L181.619 141.357L153.089 142.15V129.527V116.904H182.474H211.861L211.004 128.734ZM33.4013 148.914C33.4013 155.305 34.4228 155.873 45.9268 155.873C57.4307 155.873 58.4522 155.305 58.4522 148.914C58.4522 142.523 57.4307 141.955 45.9268 141.955C34.4228 141.955 33.4013 142.523 33.4013 148.914ZM64.0191 148.914C64.0191 155.177 65.1325 155.873 75.1529 155.873C85.1733 155.873 86.2866 155.177 86.2866 148.914C86.2866 142.651 85.1733 141.955 75.1529 141.955C65.1325 141.955 64.0191 142.651 64.0191 148.914ZM91.8535 148.914C91.8535 155.305 92.875 155.873 104.379 155.873C115.883 155.873 116.904 155.305 116.904 148.914C116.904 142.523 115.883 141.955 104.379 141.955C92.875 141.955 91.8535 142.523 91.8535 148.914ZM122.471 148.914C122.471 154.481 123.863 155.873 129.43 155.873C134.997 155.873 136.389 154.481 136.389 148.914C136.389 143.347 134.997 141.955 129.43 141.955C123.863 141.955 122.471 143.347 122.471 148.914ZM225.459 148.914C225.459 154.481 226.85 155.873 232.417 155.873C237.984 155.873 239.376 154.481 239.376 148.914C239.376 143.347 237.984 141.955 232.417 141.955C226.85 141.955 225.459 143.347 225.459 148.914ZM244.943 148.914C244.943 155.305 245.964 155.873 257.468 155.873C268.972 155.873 269.994 155.305 269.994 148.914C269.994 142.523 268.972 141.955 257.468 141.955C245.964 141.955 244.943 142.523 244.943 148.914ZM275.561 149.073C275.561 155.728 276.334 156.137 287.39 155.335C297.224 154.626 299.37 153.423 300.11 148.218C300.92 142.507 299.877 141.955 288.281 141.955C276.493 141.955 275.561 142.476 275.561 149.073ZM306.178 148.914C306.178 155.177 307.292 155.873 317.312 155.873C327.332 155.873 328.446 155.177 328.446 148.914C328.446 142.651 327.332 141.955 317.312 141.955C307.292 141.955 306.178 142.651 306.178 148.914ZM217.915 155.873C217.114 158.934 215.399 161.439 214.105 161.439C212.811 161.439 211.391 173.024 210.951 187.186L210.15 212.933L181.619 213.726L153.089 214.52V189.285C153.089 169.42 152.201 163.708 148.914 162.447C146.618 161.565 144.739 158.472 144.739 155.575C144.739 150.668 147.297 150.306 182.054 150.306C217.999 150.306 219.318 150.509 217.915 155.873ZM11.1338 176.748C11.1338 191.901 11.2173 192.057 19.4841 192.057C27.7509 192.057 27.8344 191.901 27.8344 176.748C27.8344 161.595 27.7509 161.439 19.4841 161.439C11.2173 161.439 11.1338 161.595 11.1338 176.748ZM33.4013 176.824V192.205L74.457 191.437L115.513 190.666L116.353 176.053L117.197 161.439H75.2976H33.4013V176.824ZM122.471 176.748C122.471 191.222 122.85 192.057 129.43 192.057C136.01 192.057 136.389 191.222 136.389 176.748C136.389 162.275 136.01 161.439 129.43 161.439C122.85 161.439 122.471 162.275 122.471 176.748ZM225.459 176.748C225.459 191.222 225.837 192.057 232.417 192.057C238.997 192.057 239.376 191.222 239.376 176.748C239.376 162.275 238.997 161.439 232.417 161.439C225.837 161.439 225.459 162.275 225.459 176.748ZM244.943 176.748V192.057H286.694H328.446V176.748V161.439H286.694H244.943V176.748ZM334.013 176.748C334.013 191.901 334.096 192.057 342.363 192.057C350.63 192.057 350.713 191.901 350.713 176.748C350.713 161.595 350.63 161.439 342.363 161.439C334.096 161.439 334.013 161.595 334.013 176.748ZM11.1338 212.933C11.1338 228.086 11.2173 228.242 19.4841 228.242C27.7509 228.242 27.8344 228.086 27.8344 212.933C27.8344 197.78 27.7509 197.624 19.4841 197.624C11.2173 197.624 11.1338 197.78 11.1338 212.933ZM33.4013 213.008V228.39L74.457 227.621L115.513 226.85L116.39 214.6C116.955 206.684 115.972 201.529 113.606 200.029C111.594 198.754 92.7247 197.691 71.6736 197.666L33.4013 197.624V213.008ZM244.943 212.933V228.242H286.694H328.446V212.933V197.624H286.694H244.943V212.933ZM334.569 213.629C335.352 228.623 335.844 229.634 342.363 229.634C348.882 229.634 349.375 228.623 350.157 213.629L350.992 197.624H342.363H333.734L334.569 213.629ZM11.6904 249.814C12.4726 264.808 12.9653 265.818 19.4841 265.818C26.0029 265.818 26.4956 264.808 27.2777 249.814L28.1127 233.809H19.4841H10.8554L11.6904 249.814ZM34.5314 237.667C33.7158 239.788 33.443 246.988 33.9218 253.672L34.793 265.818L69.586 266.623C115.763 267.692 116.904 267.349 116.904 252.405C116.904 245.85 115.401 238.986 113.564 237.149C108.457 232.041 36.5076 232.512 34.5314 237.667ZM245.054 273.473C245.16 311.258 245.374 312.742 249.541 304.787C261.699 281.587 289.581 261.938 316.616 257.521C328.187 255.628 328.446 255.35 328.446 244.698V233.809H286.694H244.943L245.054 273.473ZM334.013 247.367V260.925L319.4 262.821C290.75 266.531 265.972 284.406 253.307 310.495C247.314 322.837 246.501 328.833 245.488 368.11L244.358 411.949H146.053H47.7443L39.5415 405.046C35.0268 401.247 30.5789 394.358 29.6548 389.737C28.2296 382.609 26.6932 381.331 19.5537 381.331C11.3564 381.331 11.1338 381.682 11.1338 394.647C11.1338 407.033 12.1608 408.979 25.8331 422.482L40.5352 437H181.274C318.481 437 322.141 436.861 327.054 431.433C329.824 428.371 334.26 425.866 336.908 425.866C347.624 425.866 370.824 416.121 381.15 407.284C387.188 402.115 395.493 391.006 399.607 382.595C406.276 368.967 406.953 364.959 405.814 345.787C405.113 333.951 402.569 320.513 400.161 315.92C393.712 303.623 376.622 287.604 362.821 280.924L350.713 275.065V254.437V233.809H342.363C334.227 233.809 334.013 234.157 334.013 247.367ZM16.0048 272.103C12.0968 272.972 11.1338 276.173 11.1338 288.289C11.1338 303.217 11.2312 303.395 19.4841 303.395C27.7286 303.395 27.8344 303.208 27.8344 288.384C27.8344 273.03 25.6104 269.969 16.0048 272.103ZM33.4013 288.011V303.395L71.6736 303.353C92.7247 303.328 111.594 302.265 113.606 300.99C115.972 299.49 116.955 294.335 116.39 286.419L115.513 274.169L74.457 273.398L33.4013 272.63V288.011ZM361.591 289.347C408.308 313.179 412.063 378.665 368.308 406.416C322.918 435.199 264.338 402.321 264.455 348.13C264.488 332.674 274.325 310.682 286.193 299.54C305.051 281.829 338.096 277.361 361.591 289.347ZM314.209 293.319C297.449 299.306 286.394 309.062 279.441 323.995C260.46 364.753 287.891 408.904 332.315 409.104C383.486 409.335 410.157 347.986 375.316 310.192C358.468 291.913 335.719 285.631 314.209 293.319ZM353.082 298.101C357.903 299.782 361.847 301.733 361.847 302.437C361.847 303.144 357.881 308.658 353.032 314.693C344.999 324.688 343.081 325.64 331.46 325.426C320.24 325.22 317.593 323.898 309.493 314.467L300.283 303.746L308.102 299.506C317.323 294.507 340.679 293.775 353.082 298.101ZM317.905 301.569L308.753 304.884L318.036 313.883C329.576 325.067 336.56 325.234 346.079 314.554C350.16 309.972 353.497 305.711 353.497 305.082C353.497 303.272 336.432 297.806 331.51 298.04C329.058 298.156 322.937 299.743 317.905 301.569ZM11.1338 324.271C11.1338 339.424 11.2173 339.58 19.4841 339.58C27.7509 339.58 27.8344 339.424 27.8344 324.271C27.8344 309.118 27.7509 308.962 19.4841 308.962C11.2173 308.962 11.1338 309.118 11.1338 324.271ZM33.4013 324.271V339.727L74.457 338.959L115.513 338.188V324.271V310.353L74.457 309.582L33.4013 308.814V324.271ZM306.874 317.674C313.287 326.272 311.517 341.397 303.907 343.031C298.833 344.119 281.631 341.01 279.182 338.561C274.077 333.456 289.787 308.063 297.152 309.513C299.495 309.975 303.871 313.649 306.874 317.674ZM374.559 313.721C380.157 319.319 387.886 336.735 385.732 338.892C384.908 339.713 378.208 340.963 370.84 341.673C358.451 342.864 357.19 342.399 354.045 335.493C350.41 327.516 351.134 325.031 359.963 315.225C366.729 307.709 368.377 307.539 374.559 313.721ZM348.957 340.654C354.042 350.101 353.77 352.019 345.614 364.191C344.236 366.245 338.714 368.519 333.339 369.243C325.195 370.339 322.581 369.307 317.657 363.044C310.624 354.104 310.359 350.335 315.993 339.44C319.684 332.304 321.785 331.229 332.059 331.229C342.639 331.229 344.414 332.22 348.957 340.654ZM322.603 342.878C318.189 351.125 323.55 361.847 332.092 361.847C341.236 361.847 347.947 349.536 342.026 343.616C335.16 336.752 326.069 336.404 322.603 342.878ZM295.515 349.038C303.295 350.443 307.116 353.232 311.556 360.759C317.259 370.428 317.281 370.946 312.513 385.03C309.836 392.946 307.386 399.874 307.072 400.423C304.995 404.05 288.721 387.165 282.758 375.199C274.099 357.819 272.797 340.74 280.432 344.682C283.112 346.065 289.898 348.027 295.515 349.038ZM11.1338 360.455C11.1338 375.608 11.2173 375.764 19.4841 375.764C27.7509 375.764 27.8344 375.608 27.8344 360.455C27.8344 345.302 27.7509 345.146 19.4841 345.146C11.2173 345.146 11.1338 345.302 11.1338 360.455ZM33.4013 360.455V375.912L74.457 375.144L115.513 374.373V360.455V346.538L74.457 345.767L33.4013 344.999V360.455ZM388.087 355.584C385.286 371.397 378.965 383.171 368.205 392.621C362.855 397.316 358.084 400.765 357.602 400.284C357.121 399.802 354.268 393.147 351.259 385.498L345.792 371.589L351.64 361.418C356.127 353.614 360.096 350.619 368.714 348.531C389.297 343.549 390.16 343.863 388.087 355.584ZM281.127 357.761C281.127 365.296 288.551 379.747 295.905 386.525L303.05 393.111L307.35 382.818C311.125 373.788 311.161 371.572 307.645 364.775C305.012 359.684 300.611 356.419 294.816 355.262C282.316 352.759 281.127 352.976 281.127 357.761ZM366.991 355.465C356.5 357.074 351.774 369.215 356.525 382.35C359.426 390.369 360.926 391.663 364.881 389.548C376.268 383.452 387.441 352.765 377.852 353.914C375.94 354.143 371.049 354.841 366.991 355.465ZM343.014 380.635C345.378 383.316 348.139 389.414 349.155 394.191C350.741 401.67 350.107 403.114 344.593 404.59C326.731 409.374 314.529 405.714 314.529 395.571C314.529 378.631 332.796 369.053 343.014 380.635ZM33.4013 384.179C33.4013 385.826 35.3024 390.851 37.6265 395.346C43.2519 406.226 48.0422 407.239 91.3163 406.702L117.225 406.382L116.367 394.553L115.513 382.723L74.457 381.952C46.5224 381.429 33.4013 382.141 33.4013 384.179Z" fill="#281D17"/>
</svg>
