<svg width="203" height="146" viewBox="0 0 203 146" fill="none" xmlns="http://www.w3.org/2000/svg">
<path fill-rule="evenodd" clip-rule="evenodd" d="M60.3838 8.63176L60.6689 17.2635L65.3547 17.5644L70.0405 17.8653V14.3267C70.0405 12.0924 70.5861 10.5801 71.5203 10.222C72.5571 9.82343 73 8.20757 73 4.82688V0H66.5494H60.0987L60.3838 8.63176ZM74.973 4.94822V9.89742L101.268 9.63403C126.692 9.3805 127.573 9.30651 127.889 7.39865C128.069 6.31351 127.964 4.20441 127.657 2.71284L127.1 0H101.037H74.973V4.94822ZM130.216 4.93243C130.216 7.64527 130.66 9.86487 131.203 9.86487C131.745 9.86487 132.189 11.6405 132.189 13.8108V17.7568H137.122H142.054V8.87838V0H136.135H130.216V4.93243ZM12.5156 14.6049C9.94773 17.2852 9.86486 17.7321 9.86486 28.909V40.4459H17.1106C23.1035 40.4459 24.6651 40.1046 26.1419 38.473C27.5614 36.9045 29.1803 36.5 34.0338 36.5C38.8873 36.5 40.5061 36.9045 41.9257 38.473C43.4024 40.1046 44.9641 40.4459 50.957 40.4459H58.2027V28.7926C58.2027 17.3128 58.1613 17.0998 55.4356 14.4885L52.6695 11.8378H33.9174H15.1662L12.5156 14.6049ZM146.651 14.7894C144.29 17.596 144.176 18.2924 144.344 28.8468L144.52 39.9527L151.484 40.2388C157.456 40.4844 158.706 40.2388 160.269 38.5124C162.882 35.625 173.486 35.5984 176.088 38.473C177.565 40.1046 179.126 40.4459 185.119 40.4459H192.365V28.7926C192.365 17.3128 192.323 17.0998 189.598 14.4885L186.832 11.8378H167.983H149.135L146.651 14.7894ZM41.4324 14.3041C41.4324 15.4878 39.9527 15.7838 34.0338 15.7838C28.1149 15.7838 26.6351 15.4878 26.6351 14.3041C26.6351 13.1203 28.1149 12.8243 34.0338 12.8243C39.9527 12.8243 41.4324 13.1203 41.4324 14.3041ZM176.088 14.3041C176.088 14.8525 172.689 15.4188 168.443 15.5786C162.003 15.8213 160.797 15.62 160.797 14.3041C160.797 12.9881 162.003 12.7868 168.443 13.0295C172.689 13.1893 176.088 13.7556 176.088 14.3041ZM39.9527 18.7432C37.013 21.9908 27.6216 21.0891 27.6216 17.5595C27.6216 17.1254 30.7981 16.7703 34.6799 16.7703C41.6761 16.7703 41.7225 16.788 39.9527 18.7432ZM174.115 18.7432C171.175 21.9908 161.784 21.0891 161.784 17.5595C161.784 17.1254 164.96 16.7703 168.842 16.7703C175.838 16.7703 175.885 16.788 174.115 18.7432ZM60.1757 78.9189V138.108H101.115H142.054V78.9189V19.7297H101.115H60.1757V78.9189ZM4.59209 22.5205C3.33728 23.9065 2.95946 26.3027 2.95946 32.8786C2.95946 39.8245 2.68127 41.4324 1.47973 41.4324C0.295946 41.4324 0 42.9122 0 48.8311C0 54.75 0.295946 56.2297 1.47973 56.2297C2.7523 56.2297 2.95946 59.4082 2.95946 78.9189C2.95946 98.4296 2.7523 101.608 1.47973 101.608C0.305811 101.608 0 103.033 0 108.514C0 113.994 0.305811 115.419 1.47973 115.419C2.6862 115.419 2.96538 117.104 2.99004 124.544C3.01964 133.093 3.1755 133.78 5.45626 135.442L7.89189 137.213V78.9653C7.89189 46.9281 7.51703 20.7162 7.05831 20.7162C6.59959 20.7162 5.4898 21.5281 4.59209 22.5205ZM195.324 78.9189C195.324 137.365 195.326 137.425 197.297 135.642C198.988 134.112 199.27 132.604 199.27 125.1C199.27 118.226 199.589 116.221 200.75 115.776C201.864 115.348 202.23 113.554 202.23 108.514C202.23 103.473 201.864 101.679 200.75 101.251C199.495 100.77 199.27 97.3041 199.27 78.4563C199.27 59.3569 199.478 56.2297 200.75 56.2297C201.934 56.2297 202.23 54.75 202.23 48.8311C202.23 42.9122 201.934 41.4324 200.75 41.4324C199.546 41.4324 199.27 39.8057 199.27 32.707C199.27 25.2343 198.987 23.725 197.297 22.1959C195.326 20.4124 195.324 20.4726 195.324 78.9189ZM41.9829 23.5445C43.2712 24.5576 44.0476 25.6634 43.7092 26.0028C43.3709 26.3412 42.4949 26.1212 41.7629 25.5135C40.9155 24.8101 37.5684 24.5754 32.5422 24.8664C24.9374 25.3063 24.7105 25.257 26.2889 23.5129C28.6121 20.9461 38.7058 20.9668 41.9829 23.5445ZM175.998 23.4291C178.129 25.1051 177.914 25.1554 168.579 25.1554C159.485 25.1554 159.049 25.0617 160.527 23.4291C161.681 22.1545 163.622 21.7027 167.946 21.7027C172.031 21.7027 174.468 22.2255 175.998 23.4291ZM120.351 41.4324V56.2297H101.608H82.8649V41.4324V26.6351H101.608H120.351V41.4324ZM26.6351 40.4459C25.8213 40.9717 21.7155 41.4088 17.5101 41.4176L9.86486 41.4324V48.3378V55.2432H17.1106C23.1035 55.2432 24.6651 54.9019 26.1419 53.2703C27.5614 51.7018 29.1803 51.2973 34.0338 51.2973C38.8873 51.2973 40.5061 51.7018 41.9257 53.2703C43.4024 54.9019 44.9641 55.2432 50.957 55.2432H58.2027V48.3378V41.4324H50.369C46.06 41.4324 42.2611 40.9885 41.9257 40.4459C41.1444 39.1823 28.5903 39.1823 26.6351 40.4459ZM161.291 40.4459C160.955 40.9885 156.934 41.4324 152.354 41.4324H144.027V48.3378V55.2432H151.681C158.268 55.2432 159.508 54.968 160.568 53.2703C161.589 51.6347 162.869 51.2973 168.051 51.2973C173.049 51.2973 174.66 51.6929 176.088 53.2703C177.565 54.9019 179.126 55.2432 185.119 55.2432H192.365V48.3378V41.4324H184.531C180.222 41.4324 176.423 40.9885 176.088 40.4459C175.752 39.9034 172.423 39.4595 168.689 39.4595C164.955 39.4595 161.626 39.9034 161.291 40.4459ZM132.189 48.3378C133.274 49.423 134.162 51.4206 134.162 52.777C134.162 54.1334 133.274 56.1311 132.189 57.2162C131.104 58.3014 129.106 59.1892 127.75 59.1892C126.394 59.1892 124.396 58.3014 123.311 57.2162C122.226 56.1311 121.338 54.1334 121.338 52.777C121.338 51.4206 122.226 49.423 123.311 48.3378C124.396 47.2527 126.394 46.3649 127.75 46.3649C129.106 46.3649 131.104 47.2527 132.189 48.3378ZM27.1757 55.1663C26.79 55.7907 23.0798 56.2297 18.1918 56.2297H9.86486V63.1351V70.0405H17.519C24.1058 70.0405 25.3458 69.7653 26.4063 68.0676C27.4273 66.432 28.7068 66.0946 33.8888 66.0946C38.8873 66.0946 40.4982 66.4902 41.9257 68.0676C43.4024 69.6992 44.9641 70.0405 50.957 70.0405H58.2027V63.2071V56.3747L50.0642 55.8292C45.5875 55.5303 38.7551 55.0183 34.8792 54.6938C30.292 54.309 27.6039 54.4738 27.1757 55.1663ZM161.291 55.2432C160.955 55.7858 156.934 56.2297 152.354 56.2297H144.027V63.1351V70.0405H151.681C158.268 70.0405 159.508 69.7653 160.568 68.0676C161.589 66.432 162.869 66.0946 168.051 66.0946C173.049 66.0946 174.66 66.4902 176.088 68.0676C177.565 69.6992 179.126 70.0405 185.119 70.0405H192.365V63.1351V56.2297H184.531C180.222 56.2297 176.423 55.7858 176.088 55.2432C175.752 54.7007 172.423 54.2568 168.689 54.2568C164.955 54.2568 161.626 54.7007 161.291 55.2432ZM129.538 66.8887L132.189 69.6548V87.4116V105.167L128.983 108.203L125.777 111.238L100.77 111.089L75.7622 110.94L72.9014 107.738L70.0405 104.536V87.5822V70.6275L73.1933 67.3751L76.3462 64.1216H101.617H126.888L129.538 66.8887ZM75.2166 68.3142C73.2989 70.368 73.1263 71.8044 72.9023 87.5536C72.6666 104.211 72.71 104.625 74.9759 107.037L77.2902 109.5H100.718H124.146L127.181 106.946L130.216 104.392V88.0104V71.6278L127.566 68.8617L124.915 66.0946H101.102C77.6799 66.0946 77.2557 66.1311 75.2166 68.3142ZM27.1284 70.0405C26.793 70.5831 22.7721 71.027 18.1918 71.027H9.86486V77.9324V84.8378H17.519C24.1058 84.8378 25.3458 84.5626 26.4063 82.8649C27.4273 81.2293 28.7068 80.8919 33.8888 80.8919C38.8873 80.8919 40.4982 81.2875 41.9257 82.8649C43.4024 84.4965 44.9641 84.8378 50.957 84.8378H58.2027V77.9324V71.027H49.8758C45.2955 71.027 41.2746 70.5831 40.9392 70.0405C40.6038 69.498 37.4963 69.0541 34.0338 69.0541C30.5712 69.0541 27.4638 69.498 27.1284 70.0405ZM161.338 69.9636C160.952 70.588 157.242 71.027 152.354 71.027H144.027V77.9324V84.8378H151.766C158.252 84.8378 159.794 84.5182 161.291 82.8649C162.678 81.3319 164.329 80.8919 168.689 80.8919C173.049 80.8919 174.701 81.3319 176.088 82.8649C177.565 84.4965 179.126 84.8378 185.119 84.8378H192.365V78.0044V71.172L184.226 70.6265C179.751 70.3276 172.917 69.8156 169.041 69.4911C164.454 69.1063 161.766 69.2711 161.338 69.9636ZM122.015 73.1717C124.168 75.1949 124.297 76.0265 124.297 87.816C124.297 98.4829 124.044 100.539 122.571 101.838C121.141 103.099 117.543 103.36 101.608 103.36C85.6734 103.36 82.0757 103.099 80.6453 101.838C78.1455 99.6341 78.0676 75.5757 80.5516 72.8313C82.0244 71.2036 84.023 71.027 100.958 71.027C118.875 71.027 119.835 71.1247 122.015 73.1717ZM27.1284 84.8378C26.793 85.3804 22.7721 85.8243 18.1918 85.8243H9.86486V92.7297V99.6351H17.3543C23.3501 99.6351 25.3448 99.2415 27.3523 97.6622C29.1319 96.2623 31.3545 95.6892 35.0005 95.6892C38.8873 95.6892 40.5752 96.1706 41.9257 97.6622C43.4024 99.2938 44.9641 99.6351 50.957 99.6351H58.2027V92.7297V85.8243H49.8758C45.2955 85.8243 41.2746 85.3804 40.9392 84.8378C40.6038 84.2953 37.4963 83.8513 34.0338 83.8513C30.5712 83.8513 27.4638 84.2953 27.1284 84.8378ZM161.784 84.8378C160.97 85.3636 156.641 85.8006 152.166 85.8095L144.027 85.8243V92.7297V99.6351H151.516C157.512 99.6351 159.507 99.2415 161.514 97.6622C163.294 96.2623 165.517 95.6892 169.163 95.6892C173.049 95.6892 174.737 96.1706 176.088 97.6622C177.565 99.2938 179.126 99.6351 185.119 99.6351H192.365V92.7297V85.8243H184.038C179.458 85.8243 175.437 85.3804 175.101 84.8378C174.321 83.5751 163.737 83.5751 161.784 84.8378ZM27.1284 99.6351C26.793 100.178 22.7721 100.622 18.1918 100.622H9.86486V107.527V114.432H17.6364C23.3403 114.432 25.7335 114.039 26.6351 112.953C27.4894 111.924 29.7583 111.473 34.0841 111.473C38.2984 111.473 40.7823 111.95 41.7846 112.953C42.8392 114.007 45.4099 114.432 50.734 114.432H58.2027V107.527V100.622H49.8758C45.2955 100.622 41.2746 100.178 40.9392 99.6351C40.6038 99.0926 37.4963 98.6487 34.0338 98.6487C30.5712 98.6487 27.4638 99.0926 27.1284 99.6351ZM161.784 99.6351C160.97 100.161 156.641 100.598 152.166 100.607L144.027 100.622V107.527V114.432H151.799C157.502 114.432 159.896 114.039 160.797 112.953C161.667 111.905 163.969 111.473 168.689 111.473C173.41 111.473 175.711 111.905 176.581 112.953C177.47 114.023 179.822 114.432 185.087 114.432H192.365V107.527V100.622H184.038C179.458 100.622 175.437 100.178 175.101 99.6351C174.321 98.3724 163.737 98.3724 161.784 99.6351ZM27.6216 114.432C26.8078 114.958 22.4801 115.395 18.0034 115.404L9.86486 115.419V122.324V129.23H17.6364C23.3403 129.23 25.7335 128.836 26.6351 127.75C27.4875 126.723 29.7524 126.27 34.0338 126.27C38.3151 126.27 40.5801 126.723 41.4324 127.75C42.3341 128.836 44.7273 129.23 50.4312 129.23H58.2027V122.324V115.419H49.8758C45.2955 115.419 41.2746 114.975 40.9392 114.432C40.1589 113.17 29.5749 113.17 27.6216 114.432ZM162.277 114.432C161.942 114.975 157.699 115.419 152.847 115.419H144.027V122.324V129.23H151.799C157.502 129.23 159.896 128.836 160.797 127.75C161.667 126.702 163.969 126.27 168.689 126.27C173.41 126.27 175.711 126.702 176.581 127.75C177.47 128.82 179.822 129.23 185.087 129.23H192.365V122.324V115.419H184.038C179.458 115.419 175.437 114.975 175.101 114.432C174.766 113.89 171.88 113.446 168.689 113.446C165.498 113.446 162.612 113.89 162.277 114.432ZM90.2635 120.737C90.2635 127.556 88.6615 129.403 84.4215 127.471C82.1497 126.436 81.8784 125.749 81.8784 121.03C81.8784 118.125 82.195 115.431 82.5827 115.043C82.9704 114.655 84.8576 114.471 86.7753 114.632L90.2635 114.926V120.737ZM105.061 120.737C105.061 127.556 103.459 129.403 99.2188 127.471C96.947 126.436 96.6757 125.749 96.6757 121.03C96.6757 118.125 96.9923 115.431 97.38 115.043C97.7677 114.655 99.6549 114.471 101.573 114.632L105.061 114.926V120.737ZM120.317 116.34C122.712 120.817 120.819 127.048 116.872 127.677C113.126 128.274 111.473 126.498 111.473 121.877C111.473 115.579 112.167 114.432 115.983 114.432C118.248 114.432 119.618 115.035 120.317 116.34ZM18.9899 129.898L9.86486 130.29V134.992C9.86486 139.016 10.3344 140.149 13.1183 142.847L16.3707 146H34.2518C52.049 146 52.1467 145.988 55.1673 143.446C57.8683 141.174 58.2027 140.304 58.2027 135.554V130.216H53.4242C50.7952 130.216 44.0259 130.056 38.3802 129.861C32.7346 129.666 24.0081 129.682 18.9899 129.898ZM153.399 130.089L144.52 130.709L144.211 135.036C143.941 138.797 144.322 139.798 147.117 142.681L150.333 146H168.313C186.219 146 186.308 145.989 189.329 143.446C192.03 141.174 192.365 140.304 192.365 135.554V130.216H187.586C184.957 130.216 178.188 130.048 172.542 129.842C166.897 129.637 158.282 129.748 153.399 130.089Z" fill="#E19E47"/>
</svg>
