<svg width="202" height="264" viewBox="0 0 202 264" fill="none" xmlns="http://www.w3.org/2000/svg">
<path fill-rule="evenodd" clip-rule="evenodd" d="M201.356 32.1225C200.824 31.5901 198.662 31.1553 196.55 31.1553C192.975 31.1553 192.713 30.7828 192.713 25.737V20.3187L96.5375 20.3187L0.362411 20.3187V27.7689V35.219H11.199C17.5208 35.219 22.0357 35.7839 22.0357 36.5736C22.0357 37.3633 17.5208 37.9282 11.199 37.9282H0.362411V46.733V55.5377H11.199C17.5208 55.5377 22.0357 56.1026 22.0357 56.8923C22.0357 57.682 17.5208 58.2469 11.199 58.2469H0.362411V67.0516V75.8564H11.199C17.5208 75.8564 22.0357 76.4213 22.0357 77.211C22.0357 78.0007 17.5208 78.5656 11.199 78.5656H0.362411V87.3703V96.1751H11.199C17.5208 96.1751 22.0357 96.7399 22.0357 97.5296C22.0357 98.3207 17.4992 98.8842 11.134 98.8842H0.233719L0.636017 107.35L1.03969 115.816L11.5824 116.213C25.0686 116.72 24.1217 119.203 10.4418 119.203H0.362411V127.33V135.458H10.4418C24.1217 135.458 25.0686 137.941 11.5824 138.447L1.03969 138.844L0.636017 147.31L0.233719 155.777H11.134C17.4992 155.777 22.0357 156.34 22.0357 157.131C22.0357 157.921 17.5208 158.486 11.199 158.486H0.362411V167.29V176.095H11.199C17.5208 176.095 22.0357 176.66 22.0357 177.45C22.0357 178.24 17.5208 178.804 11.199 178.804H0.362411V187.609V196.414H11.199C17.5208 196.414 22.0357 196.979 22.0357 197.768C22.0357 198.558 17.5208 199.123 11.199 199.123H0.362411V207.928V216.733H11.199C17.5208 216.733 22.0357 217.297 22.0357 218.087C22.0357 218.877 17.5208 219.442 11.199 219.442H0.362411V228.246L0.362411 237.051H11.199C17.5208 237.051 22.0357 237.616 22.0357 238.406C22.0357 239.196 17.5208 239.76 11.199 239.76H0.362411V247.888V256.015H96.5375H192.713V250.005C192.713 244.216 192.874 243.98 197.115 243.571C201.162 243.181 201.517 242.765 201.517 238.406C201.517 234.047 201.162 233.631 197.115 233.241C192.801 232.825 192.713 232.683 192.713 226.129V219.442H182.633C177.089 219.442 172.177 218.832 171.717 218.087C171.186 217.227 174.863 216.733 181.796 216.733H192.713V207.928V199.123H181.796C174.863 199.123 171.186 198.629 171.717 197.768C172.177 197.023 177.089 196.414 182.633 196.414H192.713V187.609V178.804H181.796C174.863 178.804 171.186 178.31 171.717 177.45C172.177 176.705 177.089 176.095 182.633 176.095H192.713V167.29V158.486H181.796C174.863 158.486 171.186 157.991 171.717 157.131C172.177 156.386 177.089 155.777 182.633 155.777H192.713V146.972V138.167L181.537 138.011C171.947 137.877 171.13 137.697 175.78 136.735C178.76 136.119 183.79 135.578 186.956 135.536L192.713 135.458V127.33V119.203L185.601 119.032C174.277 118.759 172.689 118.587 171.608 117.51C171.047 116.952 175.566 116.494 181.65 116.494H192.713V107.689V98.8842H182.633C177.089 98.8842 172.177 98.2747 171.717 97.5296C171.186 96.6695 174.863 96.1751 181.796 96.1751H192.713V87.3703V78.5656H182.633C177.089 78.5656 172.177 77.956 171.717 77.211C171.186 76.3508 174.863 75.8564 181.796 75.8564H192.713V67.0516V58.2469H182.633C177.089 58.2469 172.177 57.6373 171.717 56.8923C171.186 56.0321 174.863 55.5377 181.796 55.5377H192.713V48.8502C192.713 42.2967 192.801 42.1545 197.115 41.7386C200.913 41.3729 201.573 40.7511 201.92 37.2021C202.142 34.94 201.887 32.6548 201.356 32.1225ZM173.358 13.5458L154.005 13.5458L147.334 6.77289L140.663 0L128.37 0L116.077 0L109.406 6.77289L102.735 13.5458L87.0554 13.5458L71.3762 13.5458L64.7049 6.77289L58.0336 0L45.7408 0L33.448 0L26.7767 6.77289L20.1054 13.5458L10.2346 13.5458C2.36176 13.5458 0.362411 13.9576 0.362411 15.5777C0.362411 17.3643 11.9522 17.6095 96.5375 17.6095C181.123 17.6095 192.713 17.3643 192.713 15.5777C192.713 13.8668 189.659 13.5458 173.358 13.5458ZM181.796 37.9282C174.863 37.9282 171.186 37.4338 171.717 36.5736C172.177 35.8286 177.089 35.219 182.633 35.219C188.45 35.219 192.713 35.792 192.713 36.5736C192.713 37.3647 188.171 37.9282 181.796 37.9282ZM182.633 239.76C177.089 239.76 172.177 239.151 171.717 238.406C171.186 237.546 174.863 237.051 181.796 237.051C188.171 237.051 192.713 237.615 192.713 238.406C192.713 239.187 188.45 239.76 182.633 239.76ZM187.972 258.724C183.996 258.724 183.121 259.188 183.488 261.095C183.801 262.719 185.214 263.466 187.972 263.466C190.729 263.466 192.142 262.719 192.455 261.095C192.822 259.188 191.947 258.724 187.972 258.724ZM164.605 254.403L159.525 253.983V138.167V22.3505L164.605 21.9306L169.685 21.5094V138.167V254.825L164.605 254.403ZM96.5375 258.724C37.7339 258.724 34.0549 258.865 34.4843 261.095C34.9109 263.311 38.9516 263.466 96.5375 263.466C154.123 263.466 158.164 263.311 158.591 261.095C159.02 258.865 155.341 258.724 96.5375 258.724ZM96.4576 37.9282C56.1115 37.9282 35.7047 37.469 36.2587 36.5736C36.7965 35.704 58.6228 35.219 97.2947 35.219C136.525 35.219 157.494 35.6904 157.494 36.5736C157.494 37.4568 136.246 37.9282 96.4576 37.9282ZM97.2148 58.2469C57.932 58.2469 36.936 57.7755 36.936 56.8923C36.936 56.0091 57.932 55.5377 97.2148 55.5377C136.498 55.5377 157.494 56.0091 157.494 56.8923C157.494 57.7755 136.498 58.2469 97.2148 58.2469ZM97.2947 78.5656C58.6228 78.5656 36.7965 78.0806 36.2587 77.211C35.7047 76.3156 56.1115 75.8564 96.4576 75.8564C136.246 75.8564 157.494 76.3278 157.494 77.211C157.494 78.0942 136.525 78.5656 97.2947 78.5656ZM97.2947 98.8842C58.6228 98.8842 36.7965 98.3993 36.2587 97.5296C35.7047 96.6343 56.1115 96.1751 96.4576 96.1751C136.246 96.1751 157.494 96.6465 157.494 97.5296C157.494 98.4128 136.525 98.8842 97.2947 98.8842ZM96.146 118.82C63.2081 118.658 36.4118 118.068 36.5974 117.51C36.783 116.952 37.2408 116.494 37.6133 116.494C37.9858 116.494 65.1478 116.494 97.972 116.494C136.06 116.494 157.361 116.968 156.843 117.804C156.338 118.623 133.582 119.004 96.146 118.82ZM36.5757 138.412C36.0041 138.174 35.8876 137.413 36.317 136.719C37.2489 135.21 155.199 134.969 156.704 136.474C157.659 137.427 38.8148 139.344 36.5757 138.412ZM96.4576 158.486C56.1115 158.486 35.7047 158.026 36.2587 157.131C36.7965 156.261 58.6228 155.777 97.2947 155.777C136.525 155.777 157.494 156.248 157.494 157.131C157.494 158.014 136.246 158.486 96.4576 158.486ZM96.4576 178.804C56.1115 178.804 35.7047 178.345 36.2587 177.45C36.7965 176.58 58.6228 176.095 97.2947 176.095C136.525 176.095 157.494 176.567 157.494 177.45C157.494 178.333 136.246 178.804 96.4576 178.804ZM96.4576 199.123C56.1115 199.123 35.7047 198.664 36.2587 197.768C36.7965 196.899 58.6228 196.414 97.2947 196.414C136.525 196.414 157.494 196.885 157.494 197.768C157.494 198.652 136.246 199.123 96.4576 199.123ZM96.4576 219.442C56.1115 219.442 35.7047 218.983 36.2587 218.087C36.7965 217.217 58.6228 216.733 97.2947 216.733C136.525 216.733 157.494 217.204 157.494 218.087C157.494 218.97 136.246 219.442 96.4576 219.442ZM97.2947 239.76C58.6228 239.76 36.7965 239.275 36.2587 238.406C35.7047 237.51 56.1115 237.051 96.4576 237.051C136.246 237.051 157.494 237.523 157.494 238.406C157.494 239.289 136.525 239.76 97.2947 239.76ZM149.711 41.4338C148.232 39.9547 150.585 38.9401 153.033 40.0021C155.353 41.0099 155.352 41.083 152.985 41.6438C151.623 41.9676 150.15 41.8727 149.711 41.4338ZM151.804 182.868C149.617 182.868 149.225 182.467 150.332 181.36C151.161 180.531 152.502 180.263 153.312 180.763C155.579 182.165 155.076 182.868 151.804 182.868ZM151.398 24.3824C150.28 24.3824 149.366 23.7729 149.366 23.0278C149.366 22.2828 150.28 21.6733 151.398 21.6733C152.515 21.6733 153.43 22.2828 153.43 23.0278C153.43 23.7729 152.515 24.3824 151.398 24.3824ZM151.398 62.3106C150.28 62.3106 149.366 61.701 149.366 60.956C149.366 60.211 150.28 59.6015 151.398 59.6015C152.515 59.6015 153.43 60.211 153.43 60.956C153.43 61.701 152.515 62.3106 151.398 62.3106ZM151.398 82.6293C150.28 82.6293 149.366 82.0197 149.366 81.2747C149.366 80.5297 150.28 79.9201 151.398 79.9201C152.515 79.9201 153.43 80.5297 153.43 81.2747C153.43 82.0197 152.515 82.6293 151.398 82.6293ZM151.398 102.948C150.28 102.948 149.366 102.338 149.366 101.593C149.366 100.848 150.28 100.239 151.398 100.239C152.515 100.239 153.43 100.848 153.43 101.593C153.43 102.338 152.515 102.948 151.398 102.948ZM151.398 123.267C150.28 123.267 149.366 122.657 149.366 121.912C149.366 121.167 150.28 120.557 151.398 120.557C152.515 120.557 153.43 121.167 153.43 121.912C153.43 122.657 152.515 123.267 151.398 123.267ZM151.398 143.585C150.28 143.585 149.366 142.976 149.366 142.231C149.366 141.486 150.28 140.876 151.398 140.876C152.515 140.876 153.43 141.486 153.43 142.231C153.43 142.976 152.515 143.585 151.398 143.585ZM152.155 163.904C151.453 163.904 150.504 163.294 150.043 162.549C149.583 161.804 150.157 161.195 151.318 161.195C152.479 161.195 153.43 161.804 153.43 162.549C153.43 163.294 152.857 163.904 152.155 163.904ZM151.398 203.187C150.28 203.187 149.366 202.577 149.366 201.832C149.366 201.087 150.28 200.478 151.398 200.478C152.515 200.478 153.43 201.087 153.43 201.832C153.43 202.577 152.515 203.187 151.398 203.187ZM151.398 223.505C150.28 223.505 149.366 222.896 149.366 222.151C149.366 221.406 150.28 220.796 151.398 220.796C152.515 220.796 153.43 221.406 153.43 222.151C153.43 222.896 152.515 223.505 151.398 223.505ZM151.398 243.824C150.28 243.824 149.366 243.215 149.366 242.47C149.366 241.725 150.28 241.115 151.398 241.115C152.515 241.115 153.43 241.725 153.43 242.47C153.43 243.215 152.515 243.824 151.398 243.824ZM117.81 13.2654L108.051 12.8685L112.996 7.78883C117.864 2.78637 118.1 2.70916 128.37 2.70916C138.64 2.70916 138.876 2.78637 143.745 7.78883L148.689 12.8685L138.128 13.2654C132.321 13.4835 123.178 13.4835 117.81 13.2654ZM117.94 24.3824C115.752 24.3824 115.361 23.9815 116.467 22.8748C117.296 22.0458 118.637 21.7776 119.447 22.2774C121.715 23.6794 121.211 24.3824 117.94 24.3824ZM117.94 41.9919C115.752 41.9919 115.361 41.591 116.467 40.4843C117.296 39.6553 118.637 39.3871 119.447 39.8869C121.715 41.2889 121.211 41.9919 117.94 41.9919ZM115.847 61.7525C114.368 60.2733 116.721 59.2587 119.168 60.3207C121.489 61.3285 121.487 61.4017 119.121 61.9625C117.758 62.2862 116.286 62.1914 115.847 61.7525ZM118.211 82.6293C116.721 82.6293 115.502 82.0197 115.502 81.2747C115.502 80.5297 116.721 79.9201 118.211 79.9201C119.701 79.9201 120.92 80.5297 120.92 81.2747C120.92 82.0197 119.701 82.6293 118.211 82.6293ZM117.454 102.948C116.379 102.948 115.502 102.338 115.502 101.593C115.502 100.848 116.757 100.239 118.291 100.239C119.824 100.239 120.703 100.848 120.243 101.593C119.782 102.338 118.528 102.948 117.454 102.948ZM117.454 123.267C116.379 123.267 115.502 122.657 115.502 121.912C115.502 121.167 116.757 120.557 118.291 120.557C119.824 120.557 120.703 121.167 120.243 121.912C119.782 122.657 118.528 123.267 117.454 123.267ZM116.585 142.502C115.321 141.238 115.682 140.876 118.211 140.876C120.74 140.876 121.1 141.238 119.836 142.502C118.572 143.765 117.849 143.765 116.585 142.502ZM116.585 162.82C115.321 161.557 115.682 161.195 118.211 161.195C120.74 161.195 121.1 161.557 119.836 162.82C118.572 164.084 117.849 164.084 116.585 162.82ZM117.94 182.868C115.752 182.868 115.361 182.467 116.467 181.36C117.296 180.531 118.637 180.263 119.447 180.763C121.715 182.165 121.211 182.868 117.94 182.868ZM117.94 203.187C115.752 203.187 115.361 202.786 116.467 201.679C117.296 200.85 118.637 200.582 119.447 201.082C121.715 202.484 121.211 203.187 117.94 203.187ZM115.847 222.947C114.368 221.468 116.721 220.454 119.168 221.516C121.489 222.523 121.487 222.597 119.121 223.157C117.758 223.481 116.286 223.386 115.847 222.947ZM115.847 243.266C114.368 241.787 116.721 240.772 119.168 241.834C121.489 242.842 121.487 242.915 119.121 243.476C117.758 243.8 116.286 243.705 115.847 243.266ZM75.5415 24.3824C74.424 24.3824 73.5097 23.7729 73.5097 23.0278C73.5097 22.2828 74.424 21.6733 75.5415 21.6733C76.659 21.6733 77.5734 22.2828 77.5734 23.0278C77.5734 23.7729 76.659 24.3824 75.5415 24.3824ZM75.5415 41.9919C74.424 41.9919 73.5097 41.3824 73.5097 40.6374C73.5097 39.8923 74.424 39.2828 75.5415 39.2828C76.659 39.2828 77.5734 39.8923 77.5734 40.6374C77.5734 41.3824 76.659 41.9919 75.5415 41.9919ZM75.5415 62.3106C74.424 62.3106 73.5097 61.701 73.5097 60.956C73.5097 60.211 74.424 59.6015 75.5415 59.6015C76.659 59.6015 77.5734 60.211 77.5734 60.956C77.5734 61.701 76.659 62.3106 75.5415 62.3106ZM75.5415 82.6293C74.424 82.6293 73.5097 82.0197 73.5097 81.2747C73.5097 80.5297 74.424 79.9201 75.5415 79.9201C76.659 79.9201 77.5734 80.5297 77.5734 81.2747C77.5734 82.0197 76.659 82.6293 75.5415 82.6293ZM75.5415 102.948C74.424 102.948 73.5097 102.338 73.5097 101.593C73.5097 100.848 74.424 100.239 75.5415 100.239C76.659 100.239 77.5734 100.848 77.5734 101.593C77.5734 102.338 76.659 102.948 75.5415 102.948ZM75.5415 123.267C74.424 123.267 73.5097 122.657 73.5097 121.912C73.5097 121.167 74.424 120.557 75.5415 120.557C76.659 120.557 77.5734 121.167 77.5734 121.912C77.5734 122.657 76.659 123.267 75.5415 123.267ZM75.5415 143.585C74.424 143.585 73.5097 142.976 73.5097 142.231C73.5097 141.486 74.424 140.876 75.5415 140.876C76.659 140.876 77.5734 141.486 77.5734 142.231C77.5734 142.976 76.659 143.585 75.5415 143.585ZM74.7843 163.904C74.0826 163.904 73.5097 163.294 73.5097 162.549C73.5097 161.804 74.4606 161.195 75.6214 161.195C76.7823 161.195 77.3567 161.804 76.8961 162.549C76.4355 163.294 75.486 163.904 74.7843 163.904ZM75.5415 182.868C74.424 182.868 73.5097 182.259 73.5097 181.514C73.5097 180.768 74.424 180.159 75.5415 180.159C76.659 180.159 77.5734 180.768 77.5734 181.514C77.5734 182.259 76.659 182.868 75.5415 182.868ZM75.5415 203.187C74.424 203.187 73.5097 202.577 73.5097 201.832C73.5097 201.087 74.424 200.478 75.5415 200.478C76.659 200.478 77.5734 201.087 77.5734 201.832C77.5734 202.577 76.659 203.187 75.5415 203.187ZM75.5415 223.505C74.424 223.505 73.5097 222.896 73.5097 222.151C73.5097 221.406 74.424 220.796 75.5415 220.796C76.659 220.796 77.5734 221.406 77.5734 222.151C77.5734 222.896 76.659 223.505 75.5415 223.505ZM75.5415 243.824C74.424 243.824 73.5097 243.215 73.5097 242.47C73.5097 241.725 74.424 241.115 75.5415 241.115C76.659 241.115 77.5734 241.725 77.5734 242.47C77.5734 243.215 76.659 243.824 75.5415 243.824ZM45.0635 13.5458C34.6333 13.5458 26.0994 13.2627 26.0994 12.9159C26.0994 12.5691 27.9918 10.1309 30.304 7.49759C34.4192 2.8094 34.7227 2.70916 44.7371 2.70916C53.6163 2.70916 55.5656 3.16565 59.4979 6.16469C67.964 12.622 66.1584 13.5458 45.0635 13.5458ZM39.9906 23.8243C38.5114 22.3451 40.8643 21.3305 43.312 22.3925C45.6324 23.4003 45.6311 23.4735 43.2646 24.0343C41.9019 24.358 40.4295 24.2632 39.9906 23.8243ZM39.9906 41.4338C38.5114 39.9547 40.8643 38.9401 43.312 40.0021C45.6324 41.0099 45.6311 41.083 43.2646 41.6438C41.9019 41.9676 40.4295 41.8727 39.9906 41.4338ZM39.9906 61.7525C38.5114 60.2733 40.8643 59.2587 43.312 60.3207C45.6324 61.3285 45.6311 61.4017 43.2646 61.9625C41.9019 62.2862 40.4295 62.1914 39.9906 61.7525ZM41.5971 123.267C40.5229 123.267 39.6452 122.657 39.6452 121.912C39.6452 121.167 40.9009 120.557 42.4343 120.557C43.9677 120.557 44.8468 121.167 44.3862 121.912C43.9257 122.657 42.6713 123.267 41.5971 123.267ZM41.5971 143.585C40.5229 143.585 39.6452 142.976 39.6452 142.231C39.6452 141.486 40.9009 140.876 42.4343 140.876C43.9677 140.876 44.8468 141.486 44.3862 142.231C43.9257 142.976 42.6713 143.585 41.5971 143.585ZM40.7289 162.82C39.465 161.557 39.8253 161.195 42.3544 161.195C44.8833 161.195 45.2437 161.557 43.9798 162.82C42.716 164.084 41.9927 164.084 40.7289 162.82ZM42.0834 182.868C39.8958 182.868 39.5043 182.467 40.611 181.36C41.44 180.531 42.781 180.263 43.5911 180.763C45.8586 182.165 45.3548 182.868 42.0834 182.868ZM39.9906 202.629C38.5114 201.149 40.8643 200.135 43.312 201.197C45.6324 202.205 45.6311 202.278 43.2646 202.839C41.9019 203.162 40.4295 203.068 39.9906 202.629ZM39.9906 222.947C38.5114 221.468 40.8643 220.454 43.312 221.516C45.6324 222.523 45.6311 222.597 43.2646 223.157C41.9019 223.481 40.4295 223.386 39.9906 222.947ZM41.6771 82.6293C40.5595 82.6293 39.6452 82.0197 39.6452 81.2747C39.6452 80.5297 40.5595 79.9201 41.6771 79.9201C42.7946 79.9201 43.7089 80.5297 43.7089 81.2747C43.7089 82.0197 42.7946 82.6293 41.6771 82.6293ZM41.6771 102.948C40.5595 102.948 39.6452 102.338 39.6452 101.593C39.6452 100.848 40.5595 100.239 41.6771 100.239C42.7946 100.239 43.7089 100.848 43.7089 101.593C43.7089 102.338 42.7946 102.948 41.6771 102.948ZM41.6771 243.824C40.5595 243.824 39.6452 243.215 39.6452 242.47C39.6452 241.725 40.5595 241.115 41.6771 241.115C42.7946 241.115 43.7089 241.725 43.7089 242.47C43.7089 243.215 42.7946 243.824 41.6771 243.824ZM29.1472 254.403L24.0675 253.983L24.0675 138.167V22.3505L29.1472 21.9306L34.2269 21.5094V138.167L34.2269 254.825L29.1472 254.403ZM5.10342 258.724C1.12775 258.724 0.252686 259.188 0.619781 261.095C0.932693 262.719 2.3455 263.466 5.10342 263.466C7.86136 263.466 9.27417 262.719 9.58708 261.095C9.95418 259.188 9.07912 258.724 5.10342 258.724Z" fill="#E19E47"/>
</svg>
