<svg width="200" height="215" viewBox="0 0 200 215" fill="none" xmlns="http://www.w3.org/2000/svg">
<path fill-rule="evenodd" clip-rule="evenodd" d="M144.817 1.47898C142.927 2.58 142.42 4.74095 142.42 11.7086V20.5414H150.637H158.854V10.2707V0L153.033 0.0410824C149.832 0.0643627 146.136 0.710732 144.817 1.47898ZM60.8601 23.409C60.4383 24.091 61.6708 24.6497 63.5975 24.6497C67.7935 24.6497 68.1331 23.8691 64.3644 22.8845C62.8594 22.4901 61.2818 22.727 60.8601 23.409ZM112.293 23.2803C112.293 24.0334 113.68 24.6401 115.374 24.6291C117.865 24.6113 118.062 24.3539 116.401 23.2803C113.746 21.5644 112.293 21.5644 112.293 23.2803ZM11.9825 30.2616C5.51468 37.1416 5.47771 37.2347 5.47771 46.6632C5.47771 55.2331 5.21341 56.1465 2.73885 56.1465C0.373854 56.1465 0 57.0599 0 62.8334C0 68.37 0.471083 69.6449 2.73885 70.2379C4.37806 70.6665 5.47771 72.1058 5.47771 73.8203C5.47771 76.0936 6.32949 76.6879 9.58599 76.6879C13.0547 76.6879 13.6943 76.1552 13.6943 73.2643C13.6943 70.3735 13.0547 69.8408 9.58599 69.8408C5.62971 69.8408 5.47771 69.6121 5.47771 63.6783C5.47771 57.8117 5.66532 57.5159 9.39427 57.5159C13.1561 57.5159 13.3423 57.2051 14.1174 49.6417C14.7843 43.1274 15.6484 41.117 19.124 38.0016C23.231 34.3192 23.7007 34.2357 40.42 34.2357C57.8172 34.2357 60.2548 33.414 55.8726 29.0318C54.5949 27.7542 54.5949 27.3885 55.8726 27.3885C56.7764 27.3885 57.5159 26.4642 57.5159 25.3344C57.5159 23.6034 54.4484 23.2857 38.0016 23.3118L18.4873 23.3432L11.9825 30.2616ZM69.8408 28.758V34.2357H89.6974H109.554V28.758V23.2803H89.6974H69.8408V28.758ZM120.51 25.2207C120.51 26.2875 121.281 27.52 122.221 27.9596C123.591 28.5977 123.591 28.9182 122.221 29.5563C121.281 29.9959 120.51 31.2284 120.51 32.2952C120.51 33.8618 123.696 34.2357 137.074 34.2357C159.689 34.2357 164.331 37.1621 164.331 51.4179C164.331 57.4926 164.349 57.5159 169.202 57.5159H174.075L173.653 63.336C173.259 68.7986 172.96 69.1821 168.782 69.5847C165.095 69.9407 164.331 70.5871 164.331 73.3506C164.331 76.1456 164.998 76.6879 168.439 76.6879C171.696 76.6879 172.548 76.0936 172.548 73.8203C172.548 72.1058 173.647 70.6665 175.287 70.2379C177.554 69.6449 178.025 68.37 178.025 62.8334C178.025 57.0599 177.652 56.1465 175.287 56.1465C172.798 56.1465 172.548 55.2331 172.548 46.1661V36.1871L165.996 29.733L159.444 23.2803H139.977C124.095 23.2803 120.51 23.6377 120.51 25.2207ZM60.2548 32.8662C60.2548 33.6194 61.7954 34.2357 63.6783 34.2357C65.5613 34.2357 67.1019 33.6194 67.1019 32.8662C67.1019 32.1131 65.5613 31.4968 63.6783 31.4968C61.7954 31.4968 60.2548 32.1131 60.2548 32.8662ZM112.293 32.8662C112.293 33.6194 113.525 34.2357 115.032 34.2357C116.538 34.2357 117.771 33.6194 117.771 32.8662C117.771 32.1131 116.538 31.4968 115.032 31.4968C113.525 31.4968 112.293 32.1131 112.293 32.8662ZM20.436 40.9774C17.1781 44.2352 16.4331 46.1469 16.4331 51.2481V57.5159H36.9745H57.5159V47.2452V36.9745H40.9774C24.5237 36.9745 24.4182 36.9951 20.436 40.9774ZM60.2548 47.2452C60.2548 57.2872 60.3315 57.5159 63.6783 57.5159C67.0252 57.5159 67.1019 57.2872 67.1019 47.2452C67.1019 37.2032 67.0252 36.9745 63.6783 36.9745C60.3315 36.9745 60.2548 37.2032 60.2548 47.2452ZM69.9873 53.0653C70.2447 61.9159 70.316 75.4718 70.1475 83.1927L69.8408 97.2293H65.0478H60.2548V148.583V199.936H89.0127H117.771V148.583V97.2293H113.662H109.554V83.6158C109.554 76.0169 108.949 69.6285 108.185 69.1561C107.432 68.6904 106.815 65.9174 106.815 62.9936C106.815 60.0699 107.432 57.2968 108.185 56.8312C108.938 56.3656 109.554 51.7082 109.554 46.4797V36.9745H89.5372H69.5203L69.9873 53.0653ZM111.206 46.9029C111.575 56.0137 111.862 56.8668 114.689 57.2694C117.652 57.6898 117.771 57.3064 117.771 47.3411C117.771 37.1484 117.712 36.9745 114.287 36.9745C110.839 36.9745 110.807 37.0745 111.206 46.9029ZM120.51 47.2452V57.5159H141.051H161.592V50.6072C161.592 45.0966 160.912 43.0164 158.23 40.3365C155.019 37.1238 154.104 36.9745 137.689 36.9745H120.51V47.2452ZM103.812 63.336L103.392 69.1561L89.3551 69.5463L75.3185 69.9366V63.7263V57.5159H89.7755H104.234L103.812 63.336ZM16.4331 73.2643C16.4331 76.4085 16.9357 76.6879 22.5955 76.6879C28.2554 76.6879 28.758 76.4085 28.758 73.2643C28.758 70.1201 28.2554 69.8408 22.5955 69.8408C16.9357 69.8408 16.4331 70.1201 16.4331 73.2643ZM31.4968 73.2643C31.4968 76.3455 32.0446 76.6879 36.9745 76.6879C41.9045 76.6879 42.4522 76.3455 42.4522 73.2643C42.4522 70.1831 41.9045 69.8408 36.9745 69.8408C32.0446 69.8408 31.4968 70.1831 31.4968 73.2643ZM45.1911 73.2643C45.1911 76.4085 45.6937 76.6879 51.3535 76.6879C57.0133 76.6879 57.5159 76.4085 57.5159 73.2643C57.5159 70.1201 57.0133 69.8408 51.3535 69.8408C45.6937 69.8408 45.1911 70.1201 45.1911 73.2643ZM60.2548 73.2643C60.2548 76.0032 60.9395 76.6879 63.6783 76.6879C66.4172 76.6879 67.1019 76.0032 67.1019 73.2643C67.1019 70.5255 66.4172 69.8408 63.6783 69.8408C60.9395 69.8408 60.2548 70.5255 60.2548 73.2643ZM110.924 73.2643C110.924 76.0032 111.608 76.6879 114.347 76.6879C117.086 76.6879 117.771 76.0032 117.771 73.2643C117.771 70.5255 117.086 69.8408 114.347 69.8408C111.608 69.8408 110.924 70.5255 110.924 73.2643ZM120.51 73.2643C120.51 76.4085 121.012 76.6879 126.672 76.6879C132.332 76.6879 132.834 76.4085 132.834 73.2643C132.834 70.1201 132.332 69.8408 126.672 69.8408C121.012 69.8408 120.51 70.1201 120.51 73.2643ZM135.573 73.3424C135.573 76.6167 135.954 76.818 141.393 76.4236C146.231 76.0744 147.287 75.4828 147.652 72.922C148.05 70.1119 147.537 69.8408 141.832 69.8408C136.032 69.8408 135.573 70.0968 135.573 73.3424ZM150.637 73.2643C150.637 76.3455 151.185 76.6879 156.115 76.6879C161.045 76.6879 161.592 76.3455 161.592 73.2643C161.592 70.1831 161.045 69.8408 156.115 69.8408C151.185 69.8408 150.637 70.1831 150.637 73.2643ZM107.212 76.6879C106.818 78.1943 105.974 79.4268 105.338 79.4268C104.701 79.4268 104.002 85.1263 103.786 92.0939L103.392 104.761L89.3551 105.151L75.3185 105.542V93.1265C75.3185 83.3529 74.8816 80.5428 73.2643 79.9225C72.1346 79.4884 71.2102 77.9669 71.2102 76.5414C71.2102 74.1271 72.4687 73.949 89.5687 73.949C107.254 73.949 107.903 74.049 107.212 76.6879ZM5.47771 86.9586C5.47771 94.4138 5.51879 94.4904 9.58599 94.4904C13.6532 94.4904 13.6943 94.4138 13.6943 86.9586C13.6943 79.5034 13.6532 79.4268 9.58599 79.4268C5.51879 79.4268 5.47771 79.5034 5.47771 86.9586ZM16.4331 86.9956V94.563L36.6322 94.1851L56.8312 93.8057L57.2448 86.6162L57.6597 79.4268H37.0457H16.4331V86.9956ZM60.2548 86.9586C60.2548 94.0796 60.441 94.4904 63.6783 94.4904C66.9157 94.4904 67.1019 94.0796 67.1019 86.9586C67.1019 79.8376 66.9157 79.4268 63.6783 79.4268C60.441 79.4268 60.2548 79.8376 60.2548 86.9586ZM110.924 86.9586C110.924 94.0796 111.11 94.4904 114.347 94.4904C117.584 94.4904 117.771 94.0796 117.771 86.9586C117.771 79.8376 117.584 79.4268 114.347 79.4268C111.11 79.4268 110.924 79.8376 110.924 86.9586ZM120.51 86.9586V94.4904H141.051H161.592V86.9586V79.4268H141.051H120.51V86.9586ZM164.331 86.9586C164.331 94.4138 164.372 94.4904 168.439 94.4904C172.507 94.4904 172.548 94.4138 172.548 86.9586C172.548 79.5034 172.507 79.4268 168.439 79.4268C164.372 79.4268 164.331 79.5034 164.331 86.9586ZM5.47771 104.761C5.47771 112.216 5.51879 112.293 9.58599 112.293C13.6532 112.293 13.6943 112.216 13.6943 104.761C13.6943 97.306 13.6532 97.2293 9.58599 97.2293C5.51879 97.2293 5.47771 97.306 5.47771 104.761ZM16.4331 104.798V112.366L36.6322 111.988L56.8312 111.608L57.2626 105.581C57.5406 101.687 57.0572 99.1506 55.8932 98.4125C54.9031 97.7853 45.6197 97.2622 35.2627 97.2498L16.4331 97.2293V104.798ZM120.51 104.761V112.293H141.051H161.592V104.761V97.2293H141.051H120.51V104.761ZM164.605 105.104C164.99 112.481 165.232 112.978 168.439 112.978C171.647 112.978 171.889 112.481 172.274 105.104L172.685 97.2293H168.439H164.194L164.605 105.104ZM5.75159 122.906C6.1364 130.283 6.37879 130.78 9.58599 130.78C12.7932 130.78 13.0356 130.283 13.4204 122.906L13.8312 115.032H9.58599H5.34076L5.75159 122.906ZM16.9891 116.93C16.5879 117.973 16.4537 121.516 16.6892 124.804L17.1178 130.78L34.2357 131.176C56.9545 131.702 57.5159 131.533 57.5159 124.181C57.5159 120.956 56.7764 117.579 55.8726 116.675C53.3597 114.162 17.9614 114.394 16.9891 116.93ZM120.564 134.546C120.616 153.136 120.722 153.866 122.772 149.952C128.753 138.538 142.471 128.871 155.772 126.698C161.465 125.767 161.592 125.63 161.592 120.389V115.032H141.051H120.51L120.564 134.546ZM164.331 121.702V128.373L157.142 129.305C143.046 131.131 130.856 139.925 124.625 152.761C121.676 158.833 121.276 161.783 120.778 181.107L120.222 202.675H71.8566H23.4898L19.4541 199.279C17.2329 197.41 15.0445 194.02 14.5899 191.747C13.8887 188.24 13.1328 187.611 9.62022 187.611C5.58726 187.611 5.47771 187.784 5.47771 194.163C5.47771 200.257 5.98303 201.214 12.7097 207.857L19.943 215H89.1853C156.69 215 158.491 214.932 160.908 212.261C162.27 210.755 164.453 209.522 165.755 209.522C171.028 209.522 182.442 204.728 187.522 200.38C190.493 197.837 194.579 192.372 196.603 188.233C199.884 181.528 200.217 179.556 199.657 170.124C199.312 164.301 198.06 157.689 196.876 155.43C193.703 149.38 185.294 141.499 178.505 138.212L172.548 135.329V125.181V115.032H168.439C164.437 115.032 164.331 115.203 164.331 121.702ZM7.8742 133.872C5.95153 134.3 5.47771 135.875 5.47771 141.836C5.47771 149.18 5.52564 149.268 9.58599 149.268C13.6422 149.268 13.6943 149.176 13.6943 141.882C13.6943 134.328 12.6001 132.822 7.8742 133.872ZM16.4331 141.699V149.268L35.2627 149.247C45.6197 149.235 54.9031 148.712 55.8932 148.084C57.0572 147.346 57.5406 144.81 57.2626 140.915L56.8312 134.889L36.6322 134.509L16.4331 134.131V141.699ZM177.899 142.356C200.884 154.081 202.731 186.3 181.204 199.953C158.873 214.114 130.052 197.938 130.109 171.277C130.126 163.673 134.965 152.853 140.804 147.371C150.082 138.657 166.34 136.459 177.899 142.356ZM154.588 144.31C146.342 147.256 140.903 152.056 137.482 159.403C128.144 179.455 141.64 201.177 163.496 201.276C188.671 201.389 201.793 171.206 184.652 152.612C176.363 143.619 165.171 140.528 154.588 144.31ZM173.713 146.663C176.085 147.49 178.025 148.45 178.025 148.796C178.025 149.144 176.074 151.857 173.688 154.826C169.736 159.744 168.793 160.212 163.075 160.107C157.555 160.005 156.253 159.355 152.268 154.715L147.736 149.44L151.583 147.354C156.12 144.895 167.611 144.535 173.713 146.663ZM156.406 148.369L151.904 150L156.471 154.428C162.148 159.93 165.584 160.012 170.268 154.758C172.275 152.503 173.917 150.407 173.917 150.097C173.917 149.207 165.521 146.518 163.1 146.633C161.894 146.69 158.882 147.471 156.406 148.369ZM5.47771 159.538C5.47771 166.993 5.51879 167.07 9.58599 167.07C13.6532 167.07 13.6943 166.993 13.6943 159.538C13.6943 152.083 13.6532 152.006 9.58599 152.006C5.51879 152.006 5.47771 152.083 5.47771 159.538ZM16.4331 159.538V167.143L36.6322 166.765L56.8312 166.385V159.538V152.691L36.6322 152.312L16.4331 151.934V159.538ZM150.979 156.293C154.134 160.523 153.264 167.964 149.519 168.768C147.023 169.304 138.56 167.774 137.355 166.569C134.843 164.057 142.572 151.564 146.196 152.278C147.349 152.505 149.502 154.312 150.979 156.293ZM184.28 154.348C187.034 157.102 190.836 165.671 189.777 166.732C189.371 167.136 186.075 167.751 182.45 168.1C176.355 168.686 175.734 168.457 174.187 165.06C172.399 161.135 172.755 159.912 177.098 155.088C180.427 151.39 181.238 151.307 184.28 154.348ZM171.684 167.599C174.186 172.246 174.051 173.19 170.039 179.179C169.361 180.189 166.644 181.308 164 181.664C159.993 182.204 158.707 181.696 156.284 178.614C152.824 174.216 152.694 172.362 155.466 167.002C157.281 163.49 158.315 162.962 163.37 162.962C168.575 162.962 169.449 163.449 171.684 167.599ZM158.718 168.693C156.546 172.75 159.184 178.025 163.386 178.025C167.885 178.025 171.187 171.968 168.274 169.056C164.895 165.679 160.423 165.508 158.718 168.693ZM145.391 171.723C149.218 172.415 151.098 173.787 153.283 177.49C156.089 182.247 156.1 182.502 153.754 189.431C152.436 193.326 151.231 196.735 151.077 197.004C150.055 198.789 142.048 190.482 139.115 184.595C134.854 176.044 134.213 167.641 137.97 169.58C139.288 170.261 142.627 171.226 145.391 171.723ZM5.47771 177.341C5.47771 184.796 5.51879 184.873 9.58599 184.873C13.6532 184.873 13.6943 184.796 13.6943 177.341C13.6943 169.886 13.6532 169.809 9.58599 169.809C5.51879 169.809 5.47771 169.886 5.47771 177.341ZM16.4331 177.341V184.945L36.6322 184.567L56.8312 184.188V177.341V170.494L36.6322 170.114L16.4331 169.736V177.341ZM190.935 174.944C189.557 182.724 186.447 188.517 181.153 193.166C178.521 195.476 176.174 197.173 175.937 196.936C175.7 196.699 174.297 193.425 172.816 189.661L170.127 182.818L173.004 177.815C175.211 173.975 177.164 172.501 181.404 171.474C191.531 169.023 191.955 169.178 190.935 174.944ZM138.312 176.015C138.312 179.722 141.964 186.832 145.582 190.167L149.098 193.407L151.213 188.343C153.07 183.9 153.088 182.81 151.359 179.466C150.063 176.961 147.898 175.355 145.047 174.785C138.897 173.554 138.312 173.661 138.312 176.015ZM180.556 174.885C175.395 175.677 173.07 181.65 175.407 188.113C176.834 192.058 177.572 192.695 179.518 191.654C185.12 188.655 190.617 173.557 185.9 174.123C184.959 174.235 182.553 174.579 180.556 174.885ZM168.76 187.269C169.923 188.588 171.281 191.588 171.781 193.938C172.561 197.618 172.249 198.329 169.536 199.054C160.749 201.408 154.745 199.608 154.745 194.617C154.745 186.283 163.733 181.571 168.76 187.269ZM16.4331 189.012C16.4331 189.823 17.3684 192.295 18.5119 194.507C21.2795 199.86 23.6363 200.358 44.9268 200.094L57.6734 199.936L57.2516 194.116L56.8312 188.296L36.6322 187.917C22.8886 187.659 16.4331 188.01 16.4331 189.012Z" fill="#E19E47"/>
</svg>
