<svg width="27" height="27" viewBox="0 0 27 27"  xmlns="http://www.w3.org/2000/svg">
<path fill-rule="evenodd" clip-rule="evenodd" d="M22.6341 4.38585C20.2169 1.97733 17.0021 0.650338 13.5773 0.648926C6.52013 0.648926 0.776616 6.3648 0.773777 13.3901C0.772831 15.6358 1.36232 17.8281 2.48279 19.7604L0.666382 26.3632L7.45372 24.5913C9.32391 25.6066 11.4294 26.1416 13.5721 26.1422H13.5775C20.6338 26.1422 26.378 20.4259 26.3807 13.4003C26.3821 9.99547 25.0515 6.79421 22.6341 4.38585ZM13.5773 23.9903H13.5729C11.6634 23.9895 9.79071 23.4788 8.1566 22.5141L7.76818 22.2845L3.74047 23.336L4.81552 19.4279L4.56241 19.0272C3.49713 17.3409 2.93461 15.392 2.93556 13.3909C2.93777 7.55164 7.71172 2.80099 13.5816 2.80099C16.424 2.80193 19.0959 3.90496 21.105 5.90683C23.1142 7.90869 24.22 10.5696 24.219 13.3995C24.2165 19.2392 19.4429 23.9903 13.5773 23.9903ZM19.4145 16.0584C19.0947 15.8989 17.5217 15.1289 17.2284 15.0225C16.9354 14.9162 16.7219 14.8634 16.5088 15.182C16.2955 15.5006 15.6825 16.2178 15.4957 16.4302C15.309 16.6427 15.1226 16.6693 14.8026 16.5099C14.4827 16.3506 13.4519 16.0142 12.2299 14.9296C11.2789 14.0854 10.6369 13.0428 10.4502 12.7242C10.2638 12.4052 10.4486 12.2495 10.5906 12.0744C10.9369 11.6464 11.2837 11.1977 11.3903 10.9853C11.497 10.7728 11.4436 10.5868 11.3635 10.4275C11.2837 10.2682 10.6439 8.70112 10.3774 8.06344C10.1175 7.44287 9.85395 7.52668 9.65745 7.51695C9.47105 7.50769 9.25768 7.50581 9.04431 7.50581C8.83109 7.50581 8.48446 7.58538 8.19114 7.9043C7.89797 8.22306 7.07161 8.9932 7.07161 10.5603C7.07161 12.1274 8.21795 13.6414 8.37786 13.8539C8.53777 14.0664 10.6338 17.2822 13.8429 18.6612C14.6061 18.9895 15.2019 19.1852 15.6667 19.332C16.4331 19.5743 17.1303 19.5401 17.6817 19.4581C18.2964 19.3666 19.5742 18.6879 19.8411 17.9442C20.1076 17.2005 20.1076 16.5631 20.0275 16.4302C19.9477 16.2974 19.7343 16.2178 19.4145 16.0584Z"/>
</svg>
