<svg width="28" height="29" viewBox="0 0 28 29"  xmlns="http://www.w3.org/2000/svg">
<path d="M27.3098 16.7688C28.1942 9.66598 26.8848 5.18181 24.5229 3.15362L24.5242 3.15244C20.712 -0.311161 7.83775 -0.823806 3.27702 3.308C1.2289 5.32912 0.507485 8.29539 0.428426 11.9676C0.349367 15.641 0.255484 22.5222 6.97675 24.3889H6.98292L6.97675 27.2397C6.97675 27.2397 6.93104 28.3946 7.70434 28.6268C8.58881 28.9002 8.98905 28.364 11.7401 25.2292C16.3403 25.6099 19.8733 24.7378 20.2747 24.6105C21.2037 24.3135 26.4599 23.65 27.3098 16.7688ZM12.1934 23.2234C12.1934 23.2234 9.28181 26.687 8.37634 27.5862C8.07987 27.8785 7.75498 27.8514 7.75992 27.2715C7.75992 26.8909 7.78216 22.5387 7.78216 22.5387C2.08373 20.9807 2.41973 15.1212 2.48149 12.056C2.54326 8.98953 3.13126 6.47815 4.86562 4.78701C8.86675 1.20792 20.1537 2.00812 23.0295 4.58667C26.5451 7.56001 25.2938 15.9603 25.3012 16.2467C24.5785 21.9907 20.3192 22.3548 19.536 22.6035C19.2013 22.7096 16.0945 23.4721 12.1934 23.2234Z" />
<path d="M13.8045 5.45989C13.3289 5.45989 13.3289 6.16699 13.8045 6.17288C17.4943 6.19998 20.5332 8.65361 20.5665 13.1543C20.5665 13.6292 21.2953 13.6233 21.2892 13.1484H21.2879C21.2484 8.29888 17.9304 5.48699 13.8045 5.45989Z" />
<path d="M18.6576 12.4083C18.6465 12.8773 19.3741 12.8997 19.3803 12.4248C19.4408 9.75078 17.7126 7.54817 14.465 7.31601C13.9894 7.28301 13.94 7.996 14.4144 8.029C17.2309 8.23288 18.7145 10.0666 18.6576 12.4083Z" />
<path d="M17.8796 15.4501C17.2693 15.113 16.648 15.3228 16.391 15.6539L15.8537 16.3174C15.5807 16.6545 15.0705 16.6097 15.0705 16.6097C11.3473 15.6704 10.3516 11.9535 10.3516 11.9535C10.3516 11.9535 10.3059 11.4502 10.6469 11.1804L11.3189 10.65C11.6549 10.3955 11.8674 9.78267 11.5252 9.18046C10.6111 7.60481 9.99711 7.06152 9.68458 6.64433C9.35599 6.25189 8.86187 6.16351 8.34799 6.42867H8.33687C7.26834 7.02499 6.09851 8.14102 6.47281 9.29006C7.11146 10.5015 8.28499 14.3635 12.0255 17.2814C13.7833 18.6615 16.5652 20.0756 17.7461 20.4021L17.7573 20.4186C18.9209 20.7886 20.0524 19.629 20.6565 18.579V18.5707C20.9246 18.0628 20.8356 17.582 20.444 17.2673C19.7498 16.6215 18.7023 15.9085 17.8796 15.4501Z" />
<path d="M14.9743 9.94643C16.1614 10.0124 16.7371 10.604 16.7988 11.8191C16.8211 12.294 17.5437 12.261 17.5215 11.7861C17.4424 10.1998 16.5752 9.31594 15.0138 9.23344C14.5382 9.20634 14.4937 9.91933 14.9743 9.94643Z" />
</svg>
